<svg id="svg" version="1.1" xmlns="http://www.w3.org/2000/svg" xmlns:xlink="http://www.w3.org/1999/xlink" width="400" height="66.73421141506248" viewBox="0, 0, 400,66.73421141506248"><g id="svgg"><path id="path0" d="M244.538 25.792 L 244.583 51.583 245.054 52.823 C 245.615 54.302,246.522 55.989,247.122 56.667 C 247.616 57.227,248.106 57.791,248.500 58.258 C 249.005 58.854,251.164 60.614,252.081 61.176 C 253.201 61.863,253.368 61.954,254.929 62.735 C 256.558 63.549,258.512 64.287,259.583 64.493 C 259.950 64.564,260.700 64.740,261.250 64.885 C 265.292 65.951,273.226 65.923,276.833 64.830 C 277.154 64.733,277.717 64.588,278.083 64.507 C 279.650 64.164,284.327 62.191,284.472 61.812 C 284.503 61.732,284.600 61.667,284.688 61.667 C 285.515 61.667,290.833 56.978,290.833 56.249 C 290.833 56.191,291.007 55.906,291.220 55.614 C 291.622 55.061,292.044 54.219,292.698 52.667 L 293.083 51.750 293.129 25.875 L 293.175 -0.000 284.754 -0.000 L 276.333 0.000 276.331 23.042 C 276.329 47.665,276.349 47.043,275.524 48.378 C 272.989 52.480,264.789 52.523,262.217 48.448 C 261.322 47.031,261.346 47.704,261.339 22.958 L 261.333 0.000 252.913 0.000 L 244.493 0.000 244.538 25.792 M298.833 32.168 L 298.833 64.336 307.292 64.293 L 315.750 64.250 315.793 50.708 L 315.835 37.167 322.251 37.167 L 328.667 37.167 328.667 50.750 L 328.667 64.333 337.167 64.333 L 345.667 64.333 345.667 32.167 L 345.667 0.000 337.167 0.000 L 328.667 0.000 328.667 11.750 L 328.667 23.500 322.250 23.500 L 315.833 23.500 315.833 11.750 L 315.833 0.000 307.333 0.000 L 298.833 0.000 298.833 32.168 M351.333 32.167 L 351.333 64.333 359.499 64.333 L 367.665 64.333 367.707 49.132 L 367.750 33.930 368.560 35.590 C 369.006 36.503,370.644 39.837,372.201 43.000 C 373.758 46.163,376.157 51.038,377.533 53.833 C 378.908 56.629,380.114 59.067,380.212 59.250 C 380.310 59.433,380.647 60.108,380.961 60.750 C 381.274 61.392,381.799 62.460,382.128 63.125 L 382.726 64.333 391.363 64.333 L 400.000 64.333 400.000 32.167 L 400.000 0.000 391.834 0.000 L 383.668 0.000 383.626 15.372 L 383.583 30.743 383.036 29.663 C 382.735 29.069,382.428 28.471,382.354 28.333 C 382.179 28.010,381.961 27.593,381.104 25.939 C 380.717 25.194,380.319 24.433,380.219 24.250 C 380.119 24.067,379.849 23.542,379.619 23.083 C 379.168 22.186,377.592 19.131,375.447 15.000 C 374.710 13.579,373.741 11.704,373.294 10.833 C 372.847 9.962,372.050 8.425,371.522 7.417 C 370.994 6.408,370.014 4.533,369.343 3.250 C 368.673 1.967,368.016 0.710,367.883 0.458 L 367.642 0.000 359.488 0.000 L 351.333 0.000 351.333 32.167 M0.000 33.667 L 0.000 63.000 6.500 63.000 L 13.000 63.000 13.000 58.013 L 13.000 53.026 13.458 52.476 C 13.710 52.173,14.029 51.798,14.167 51.641 C 14.304 51.485,14.522 51.230,14.650 51.075 C 16.039 49.399,17.554 47.584,17.716 47.403 C 17.826 47.279,18.024 47.052,18.154 46.898 C 18.448 46.552,18.898 47.042,19.621 48.500 C 19.872 49.004,20.198 49.604,20.346 49.833 C 21.146 51.073,21.509 51.671,21.963 52.500 C 22.411 53.316,23.511 55.221,24.399 56.718 C 24.573 57.011,24.941 57.663,25.218 58.167 C 25.494 58.671,25.858 59.262,26.027 59.481 C 26.195 59.699,26.333 59.936,26.333 60.006 C 26.333 60.076,26.633 60.609,27.000 61.192 C 27.367 61.774,27.740 62.419,27.830 62.625 L 27.992 63.000 35.746 63.000 C 40.843 63.000,43.500 62.942,43.500 62.832 C 43.500 62.740,43.026 61.933,42.447 61.040 C 41.868 60.147,41.344 59.304,41.283 59.167 C 41.167 58.907,39.112 55.709,38.872 55.417 C 38.797 55.325,38.480 54.800,38.167 54.250 C 37.854 53.700,37.534 53.175,37.456 53.083 C 37.377 52.992,37.169 52.692,36.993 52.417 C 36.816 52.142,36.577 51.769,36.461 51.589 C 36.345 51.409,35.945 50.771,35.571 50.172 C 35.198 49.573,34.749 48.858,34.573 48.583 C 34.044 47.755,33.934 47.575,33.500 46.833 C 32.887 45.787,32.787 45.628,32.375 45.054 C 32.169 44.767,32.000 44.459,32.000 44.370 C 32.000 44.280,31.886 44.113,31.747 43.997 C 31.608 43.882,31.374 43.535,31.228 43.227 C 31.082 42.919,30.896 42.667,30.814 42.667 C 30.733 42.667,30.665 42.573,30.664 42.458 C 30.661 42.279,29.943 41.083,29.538 40.583 C 29.463 40.492,29.147 39.967,28.834 39.417 C 28.522 38.867,28.169 38.318,28.050 38.196 C 27.774 37.916,27.776 37.897,28.125 37.512 C 28.285 37.335,28.492 37.091,28.583 36.970 C 28.844 36.624,31.377 33.455,31.689 33.083 C 33.623 30.781,42.167 20.101,42.167 19.987 C 42.167 19.896,39.054 19.833,34.506 19.833 L 26.845 19.833 26.647 20.203 C 26.538 20.407,25.973 21.148,25.391 21.852 C 24.809 22.555,24.333 23.168,24.333 23.215 C 24.333 23.261,24.153 23.513,23.933 23.775 C 22.811 25.105,20.000 28.703,20.000 28.807 C 20.000 28.872,19.869 29.050,19.708 29.201 C 19.548 29.353,19.340 29.576,19.247 29.697 C 19.154 29.818,18.367 30.826,17.497 31.937 C 16.628 33.048,15.260 34.798,14.458 35.826 L 13.000 37.695 13.000 21.014 L 13.000 4.333 6.500 4.333 L 0.000 4.333 0.000 33.667 M83.128 7.958 C 81.067 8.019,81.320 7.805,80.424 10.250 C 80.088 11.167,79.667 12.268,79.490 12.698 C 79.312 13.127,79.167 13.562,79.167 13.664 C 79.167 13.766,79.017 14.160,78.833 14.539 C 78.650 14.919,78.500 15.346,78.499 15.490 C 78.498 15.633,78.397 15.944,78.273 16.181 C 78.150 16.418,77.918 17.027,77.758 17.535 C 77.492 18.381,77.403 18.486,76.692 18.792 C 75.619 19.255,74.101 19.833,73.960 19.833 C 73.896 19.833,73.433 20.021,72.932 20.250 C 72.431 20.479,71.945 20.667,71.852 20.667 C 71.759 20.667,71.491 20.754,71.258 20.860 L 70.833 21.054 70.833 26.110 L 70.833 31.167 74.250 31.167 L 77.667 31.167 77.690 39.208 C 77.717 48.587,77.738 49.444,77.976 50.667 C 78.404 52.873,78.689 54.039,78.943 54.623 C 79.671 56.298,80.191 57.313,80.417 57.501 C 80.554 57.614,80.667 57.785,80.667 57.880 C 80.667 58.095,82.858 60.326,83.073 60.330 C 83.158 60.332,83.383 60.472,83.573 60.642 C 85.728 62.579,90.055 63.306,99.542 63.325 L 103.833 63.333 103.834 61.792 C 103.834 60.944,103.883 58.511,103.943 56.385 L 104.053 52.519 99.235 52.466 C 93.975 52.407,93.780 52.374,92.572 51.322 C 90.805 49.782,90.667 48.903,90.667 39.215 L 90.667 31.167 96.917 31.167 L 103.167 31.167 103.167 25.500 L 103.167 19.833 96.917 19.833 L 90.667 19.833 90.667 13.833 L 90.667 7.833 87.792 7.869 C 86.210 7.888,84.112 7.928,83.128 7.958 M128.917 18.654 C 126.598 19.100,125.940 19.252,124.697 19.627 C 111.160 23.719,104.668 38.973,111.024 51.750 C 112.227 54.167,113.202 55.507,115.197 57.484 C 117.157 59.426,117.240 59.500,117.458 59.500 C 117.558 59.500,117.664 59.563,117.694 59.640 C 117.976 60.350,122.487 62.585,125.250 63.384 C 131.558 65.209,139.432 64.435,144.667 61.478 C 146.786 60.281,148.333 59.232,148.333 58.992 C 148.333 58.905,148.417 58.833,148.519 58.833 C 148.743 58.833,150.830 56.742,151.761 55.583 C 152.658 54.469,153.730 52.868,153.938 52.333 C 153.991 52.196,154.172 51.783,154.340 51.417 C 154.959 50.066,155.167 49.527,155.167 49.266 C 155.167 49.027,154.473 49.000,148.195 49.000 L 141.223 49.000 140.694 49.737 C 140.095 50.570,139.062 51.591,138.476 51.927 C 136.025 53.331,133.221 53.932,131.167 53.491 C 130.754 53.403,130.154 53.284,129.833 53.228 C 126.909 52.710,122.975 49.163,122.003 46.167 C 121.929 45.938,121.815 45.619,121.750 45.458 C 121.637 45.182,122.522 45.167,138.965 45.167 L 156.299 45.167 156.483 44.111 C 157.216 39.901,155.879 33.484,153.456 29.586 C 152.711 28.388,152.244 27.732,152.053 27.617 C 151.932 27.543,151.833 27.412,151.833 27.325 C 151.833 26.459,146.765 22.319,144.169 21.065 C 139.901 19.002,132.878 17.892,128.917 18.654 M50.333 41.417 L 50.333 63.000 56.917 63.000 L 63.500 63.000 63.500 41.417 L 63.500 19.833 56.917 19.833 L 50.333 19.833 50.333 41.417 M135.500 29.258 C 136.665 29.608,137.440 29.910,137.689 30.109 C 137.814 30.210,138.168 30.419,138.475 30.575 C 139.782 31.240,142.660 34.879,142.666 35.875 C 142.666 35.944,138.023 36.000,132.347 36.000 L 122.027 36.000 122.520 35.042 C 123.076 33.964,123.340 33.516,123.583 33.244 C 123.675 33.142,123.977 32.801,124.254 32.487 C 126.858 29.542,131.764 28.133,135.500 29.258 " stroke="none" fill="#2c6cb4" fill-rule="evenodd"></path><path id="path1" d="M205.443 0.612 C 204.801 1.254,206.059 3.463,208.224 5.493 C 210.923 8.024,211.806 11.637,210.683 15.553 C 209.871 18.384,210.343 24.108,211.533 25.859 C 211.698 26.102,211.833 26.382,211.833 26.481 C 211.833 26.720,212.817 28.248,213.520 29.101 C 215.607 31.632,216.625 33.897,216.790 36.375 C 216.887 37.827,217.193 38.082,217.791 37.208 C 218.520 36.142,220.331 32.225,220.333 31.712 C 220.333 31.599,220.475 31.037,220.649 30.462 C 221.992 26.010,221.963 19.192,220.586 15.898 C 220.447 15.565,220.333 15.188,220.333 15.059 C 220.333 14.523,218.004 10.170,217.642 10.028 C 217.564 9.997,217.500 9.895,217.500 9.801 C 217.500 9.580,216.382 8.206,215.096 6.847 C 214.124 5.820,214.113 5.800,214.833 6.345 C 215.979 7.212,218.702 10.022,219.433 11.089 C 220.520 12.679,220.653 12.892,220.991 13.583 C 221.171 13.950,221.425 14.438,221.557 14.667 C 225.405 21.360,224.097 32.446,218.679 39.067 C 217.105 40.990,215.863 42.058,213.417 43.594 C 212.451 44.200,210.353 45.021,208.708 45.437 C 208.264 45.549,208.534 45.987,209.265 46.341 L 210.030 46.711 210.723 46.331 C 211.105 46.122,211.529 45.860,211.667 45.750 C 211.804 45.640,212.442 45.309,213.083 45.014 C 213.725 44.719,214.380 44.407,214.540 44.322 C 216.015 43.530,221.572 41.950,223.568 41.754 C 228.215 41.298,229.425 39.951,228.496 36.265 C 228.130 34.812,228.226 34.411,229.042 33.981 C 229.826 33.568,229.940 32.406,229.250 31.863 C 228.721 31.447,228.727 31.403,229.333 31.192 C 230.216 30.884,230.300 30.349,229.679 29.002 C 228.894 27.298,229.473 25.808,231.016 25.561 C 232.786 25.278,232.871 23.774,231.218 22.000 C 230.576 21.311,229.898 20.483,229.204 19.542 C 228.781 18.969,228.375 18.500,228.301 18.500 C 228.227 18.500,228.167 18.388,228.167 18.251 C 228.167 18.115,228.017 17.909,227.833 17.795 C 227.650 17.680,227.500 17.501,227.500 17.397 C 227.500 17.293,227.381 17.109,227.236 16.988 C 226.943 16.745,226.962 16.239,227.339 14.224 C 227.728 12.148,226.496 10.368,222.687 7.500 C 222.383 7.271,221.935 6.927,221.692 6.736 C 221.194 6.344,219.367 5.128,218.994 4.940 C 218.860 4.873,218.450 4.635,218.083 4.412 C 216.333 3.348,212.726 1.862,211.000 1.492 C 210.679 1.424,209.854 1.220,209.167 1.040 C 207.817 0.686,205.621 0.434,205.443 0.612 M191.557 8.295 C 191.175 8.548,190.524 9.119,190.110 9.564 C 189.398 10.329,189.322 10.367,188.720 10.262 C 186.831 9.934,186.705 9.942,186.257 10.425 C 186.005 10.697,185.833 11.079,185.833 11.367 C 185.833 11.835,185.820 11.843,185.463 11.593 C 184.613 10.997,183.302 11.335,183.009 12.224 C 182.907 12.532,182.649 12.949,182.435 13.150 L 182.046 13.515 181.248 13.091 C 179.399 12.108,178.647 12.512,177.326 15.199 C 175.385 19.148,174.856 19.847,172.887 21.065 C 170.458 22.567,169.295 23.802,169.086 25.103 C 169.028 25.459,168.842 26.387,168.671 27.167 C 167.769 31.283,167.800 37.692,168.739 41.334 C 169.366 43.769,169.727 44.964,170.104 45.854 C 170.322 46.370,170.500 46.876,170.500 46.979 C 170.500 47.280,171.241 47.195,171.594 46.854 C 172.174 46.292,172.500 45.834,172.500 45.581 C 172.500 45.445,172.557 45.333,172.627 45.333 C 172.761 45.333,173.333 44.117,173.333 43.835 C 173.333 42.966,174.871 39.001,175.208 39.000 C 175.277 39.000,175.333 38.919,175.333 38.819 C 175.333 37.972,178.193 36.215,181.167 35.235 C 186.418 33.505,189.516 30.782,191.483 26.167 C 191.697 25.662,192.014 24.942,192.187 24.565 C 192.359 24.188,192.500 23.835,192.500 23.781 C 192.500 23.667,193.177 22.605,193.619 22.027 C 194.271 21.174,195.558 20.006,196.427 19.479 C 197.955 18.553,197.702 18.411,194.579 18.448 C 191.421 18.485,186.464 19.535,185.592 20.352 C 185.505 20.433,185.338 20.500,185.221 20.500 C 185.104 20.500,184.501 20.750,183.879 21.056 C 177.594 24.150,173.772 28.592,171.523 35.417 C 171.014 36.959,171.101 35.860,171.655 33.750 C 172.353 31.090,173.380 28.682,174.601 26.843 C 174.866 26.443,175.158 26.003,175.250 25.863 C 176.636 23.755,179.657 20.993,182.000 19.691 C 189.410 15.575,197.348 15.154,203.667 18.541 C 204.354 18.909,205.072 19.351,205.261 19.522 C 205.450 19.693,205.656 19.833,205.719 19.833 C 205.860 19.833,206.261 20.185,207.286 21.208 C 208.369 22.289,208.667 22.265,208.667 21.098 L 208.667 20.195 207.555 19.556 C 206.943 19.204,206.248 18.804,206.011 18.667 C 204.042 17.527,199.000 12.987,197.668 11.155 C 195.503 8.174,193.295 7.141,191.557 8.295 M187.313 33.933 C 186.398 34.417,186.402 34.402,186.258 38.083 C 186.070 42.866,184.646 49.133,182.875 52.968 C 182.117 54.609,183.205 56.667,184.831 56.667 C 185.540 56.667,186.833 58.004,186.833 58.737 C 186.833 59.053,187.474 59.500,187.927 59.500 C 188.142 59.500,188.354 59.663,188.470 59.917 C 188.634 60.278,188.767 60.333,189.474 60.333 C 190.681 60.333,191.090 60.722,191.223 61.995 C 191.422 63.897,192.323 64.245,195.333 63.583 C 197.860 63.028,199.514 63.358,201.702 64.857 C 201.950 65.027,202.201 65.167,202.259 65.167 C 202.318 65.167,202.564 65.308,202.808 65.480 C 204.357 66.579,208.308 67.030,210.290 66.333 C 210.812 66.150,211.370 66.000,211.531 66.000 C 211.692 66.000,212.248 65.813,212.766 65.583 C 213.284 65.354,213.817 65.167,213.951 65.167 C 214.313 65.167,218.459 63.130,219.594 62.394 C 220.138 62.042,220.705 61.678,220.853 61.585 C 221.751 61.024,223.260 59.867,224.007 59.167 C 224.154 59.029,224.531 58.684,224.845 58.399 C 226.376 57.013,228.833 54.167,228.833 53.780 C 228.833 53.030,225.381 52.833,223.561 53.478 C 219.547 54.900,216.540 53.970,212.417 50.032 C 209.372 47.125,203.771 45.602,199.417 46.497 C 196.948 47.005,194.501 46.703,192.167 45.602 C 191.219 45.156,190.500 45.041,190.500 45.336 C 190.500 45.563,191.534 47.402,191.701 47.472 C 191.774 47.503,191.833 47.602,191.833 47.693 C 191.833 48.318,195.400 52.290,197.417 53.911 C 198.058 54.427,198.715 54.958,198.877 55.091 C 199.038 55.224,199.220 55.333,199.280 55.333 C 199.341 55.333,199.522 55.452,199.682 55.597 C 200.655 56.478,205.077 58.504,206.750 58.835 C 207.117 58.908,207.942 59.086,208.583 59.231 C 210.387 59.638,215.321 59.601,217.136 59.165 C 219.774 58.533,219.050 59.116,216.308 59.833 C 208.126 61.970,200.223 59.865,194.284 53.965 C 190.803 50.507,188.948 47.463,187.937 43.549 C 187.340 41.235,187.299 37.257,187.854 35.384 C 188.331 33.777,188.212 33.458,187.313 33.933 " stroke="none" fill="#bca46c" fill-rule="evenodd"></path><path id="path2" d="" stroke="none" fill="#9c8894" fill-rule="evenodd"></path><path id="path3" d="" stroke="none" fill="#548890" fill-rule="evenodd"></path><path id="path4" d="" stroke="none" fill="#2c88b8" fill-rule="evenodd"></path></g></svg>