<svg id="svg" version="1.1" xmlns="http://www.w3.org/2000/svg" xmlns:xlink="http://www.w3.org/1999/xlink" width="400" height="400" viewBox="0, 0, 400,400"><g id="svgg"><path id="path0" d="M0.000 200.000 L 0.000 400.000 200.000 400.000 L 400.000 400.000 400.000 200.000 L 400.000 0.000 200.000 0.000 L 0.000 0.000 0.000 200.000 M280.162 65.400 C 282.041 66.675,283.594 66.683,284.777 65.424 C 286.320 63.782,290.870 64.591,293.565 66.987 C 295.711 68.895,298.400 71.810,298.400 72.229 C 298.400 72.354,298.625 72.694,298.900 72.984 C 299.175 73.274,299.760 74.018,300.200 74.638 C 300.640 75.258,301.315 76.088,301.700 76.483 C 302.085 76.877,302.400 77.470,302.400 77.800 C 302.400 78.130,302.541 78.400,302.714 78.400 C 302.886 78.400,303.332 78.915,303.703 79.544 C 304.075 80.174,305.027 81.389,305.819 82.244 C 308.529 85.171,308.667 85.868,308.631 96.431 L 308.600 105.862 307.443 107.431 C 306.276 109.015,302.462 112.800,302.032 112.800 C 301.555 112.801,299.719 114.642,299.040 115.800 C 298.653 116.460,297.720 117.450,296.967 118.000 C 296.214 118.550,295.489 119.405,295.356 119.900 C 295.222 120.395,294.953 120.800,294.757 120.800 C 294.560 120.800,294.397 121.205,294.394 121.700 C 294.389 122.387,294.303 122.466,294.029 122.033 C 293.832 121.721,293.069 121.425,292.335 121.374 C 291.601 121.323,290.595 121.152,290.100 120.994 C 289.386 120.766,289.199 120.861,289.197 121.453 C 289.196 121.864,288.403 123.761,287.436 125.669 C 286.469 127.577,285.555 129.737,285.406 130.469 C 284.955 132.687,283.569 136.505,282.600 138.200 C 281.326 140.429,279.602 146.286,279.591 148.421 C 279.586 149.399,279.198 151.010,278.727 152.000 C 278.257 152.990,277.891 153.905,277.914 154.033 C 277.937 154.162,277.741 154.286,277.478 154.310 C 277.215 154.334,276.640 154.440,276.200 154.546 C 275.760 154.652,275.175 154.753,274.900 154.769 C 274.625 154.786,274.386 155.115,274.368 155.500 C 274.349 155.922,274.256 156.001,274.134 155.698 C 274.023 155.421,273.767 155.297,273.566 155.421 C 273.365 155.545,273.200 155.480,273.200 155.276 C 273.200 153.830,270.269 154.504,268.326 156.397 C 266.421 158.253,264.800 158.578,264.800 157.104 C 264.800 156.937,264.600 156.800,264.356 156.800 C 264.112 156.800,263.506 156.408,263.008 155.930 C 262.110 155.064,260.400 154.630,260.400 155.267 C 260.400 155.450,260.119 155.600,259.776 155.600 C 259.433 155.600,259.256 155.768,259.383 155.972 C 259.509 156.177,259.427 156.460,259.200 156.600 C 258.973 156.740,258.879 157.004,258.991 157.186 C 259.104 157.368,258.944 158.001,258.637 158.593 L 258.079 159.670 257.839 158.535 C 257.461 156.751,258.184 153.282,259.146 152.258 C 259.620 151.753,259.901 151.234,259.771 151.105 C 259.442 150.776,260.318 149.238,261.410 148.226 C 263.163 146.601,264.178 125.037,262.765 119.427 L 262.305 117.600 260.172 117.600 C 258.999 117.600,257.113 117.799,255.980 118.042 C 254.483 118.363,252.705 118.364,249.461 118.046 C 247.007 117.805,243.353 117.582,241.341 117.550 C 239.328 117.518,236.718 117.352,235.541 117.182 C 233.555 116.894,207.266 116.422,179.000 116.165 C 172.400 116.106,166.640 116.031,166.200 115.999 C 164.467 115.874,158.715 116.057,153.088 116.415 C 146.550 116.831,144.981 117.326,144.543 119.107 C 144.395 119.708,144.039 120.563,143.752 121.007 C 142.332 123.203,141.761 125.731,140.816 134.000 C 140.378 137.839,139.822 140.423,139.161 141.695 C 138.962 142.077,138.800 142.655,138.800 142.981 C 138.800 143.709,137.716 147.147,137.187 148.095 C 136.974 148.477,136.800 149.067,136.800 149.406 C 136.800 151.253,134.475 154.602,132.847 155.100 C 130.534 155.808,130.382 155.771,128.767 154.100 C 127.970 153.275,126.750 152.150,126.056 151.600 C 124.702 150.526,122.448 147.206,122.143 145.837 C 122.041 145.377,121.700 143.481,121.385 141.624 C 121.071 139.768,120.518 137.359,120.157 136.271 C 119.614 134.636,119.572 133.835,119.917 131.647 C 120.146 130.191,120.343 126.305,120.355 123.011 C 120.380 116.366,120.550 114.690,121.615 110.600 C 122.122 108.655,122.431 105.455,122.630 100.116 C 123.017 89.702,121.323 90.766,137.868 90.545 C 145.091 90.448,151.270 90.267,151.600 90.144 C 155.898 88.530,177.992 88.235,186.800 89.673 C 189.563 90.125,242.431 90.616,244.649 90.211 C 247.508 89.689,250.284 86.486,250.624 83.318 C 250.772 81.933,251.052 80.800,251.247 80.800 C 251.441 80.800,251.600 80.433,251.600 79.985 C 251.600 79.537,252.455 78.340,253.500 77.325 C 254.545 76.310,255.940 74.658,256.600 73.654 C 257.611 72.116,258.178 71.699,260.200 71.005 C 261.520 70.553,263.230 69.782,264.000 69.293 C 264.770 68.803,265.546 68.402,265.725 68.401 C 266.273 68.399,270.485 66.318,271.938 65.332 C 273.955 63.963,278.096 63.998,280.162 65.400 M179.521 123.900 C 181.364 125.470,181.819 128.285,181.251 134.600 C 181.013 137.240,180.719 145.790,180.597 153.600 C 180.368 168.293,179.949 175.787,179.009 182.000 C 178.676 184.204,178.427 187.239,178.190 192.000 C 177.510 205.624,176.401 219.196,175.607 223.600 C 175.389 224.810,175.016 227.420,174.779 229.400 C 174.542 231.380,174.068 234.440,173.725 236.200 C 172.604 241.961,172.448 242.979,172.424 244.700 C 172.411 245.635,172.259 246.400,172.086 246.400 C 171.377 246.400,171.360 255.928,172.062 259.522 C 172.803 263.308,171.136 269.956,169.600 269.346 C 169.270 269.215,168.317 268.946,167.483 268.748 C 166.648 268.550,165.257 267.941,164.391 267.394 C 163.525 266.847,162.632 266.400,162.408 266.400 C 162.184 266.400,161.996 266.265,161.992 266.100 C 161.987 265.935,160.549 264.270,158.794 262.400 C 157.040 260.530,155.380 258.505,155.105 257.900 C 154.830 257.295,154.482 256.800,154.332 256.800 C 152.703 256.800,152.096 242.203,153.217 230.000 C 153.777 223.901,153.853 223.600,154.831 223.600 C 155.280 223.600,155.549 223.440,155.428 223.245 C 155.307 223.050,155.477 222.668,155.804 222.396 C 156.132 222.124,156.400 221.589,156.400 221.207 C 156.400 220.824,156.847 219.853,157.393 219.048 L 158.386 217.584 158.788 190.092 C 159.798 120.925,159.575 125.852,161.769 124.213 C 162.750 123.481,163.537 123.390,169.697 123.299 C 173.459 123.243,176.625 123.108,176.735 122.999 C 177.212 122.521,178.325 122.881,179.521 123.900 M247.564 123.381 C 249.653 124.462,249.698 124.940,249.241 141.455 C 249.011 149.785,248.715 162.720,248.583 170.200 C 248.406 180.177,248.143 185.238,247.594 189.200 C 247.182 192.170,246.738 196.940,246.607 199.800 C 246.476 202.660,246.208 206.350,246.012 208.000 C 245.816 209.650,245.447 213.700,245.192 217.000 C 244.734 222.928,244.303 226.494,243.619 230.000 C 242.783 234.289,242.416 237.162,242.408 239.467 C 242.404 240.823,242.233 241.993,242.029 242.067 C 241.826 242.140,241.367 243.730,241.011 245.600 C 240.127 250.237,238.499 254.322,236.909 255.893 C 236.189 256.604,235.600 257.459,235.600 257.793 C 235.600 258.127,235.425 258.400,235.212 258.400 C 234.999 258.400,234.828 258.985,234.833 259.700 C 234.845 261.659,234.591 262.540,233.965 262.708 C 232.986 262.969,231.421 263.780,230.850 264.322 C 230.196 264.941,228.163 264.800,228.286 264.143 C 228.333 263.892,227.845 263.609,227.202 263.515 C 225.872 263.320,225.655 263.833,225.562 267.400 C 225.481 270.529,223.098 275.043,221.791 274.541 C 218.770 273.382,218.804 239.562,221.841 224.859 L 222.036 223.919 222.818 224.821 C 223.248 225.317,223.600 225.885,223.600 226.085 C 223.600 226.284,223.769 226.343,223.975 226.215 C 224.182 226.088,224.407 226.662,224.475 227.492 C 224.553 228.436,224.787 228.963,225.100 228.900 C 225.416 228.837,225.604 229.278,225.612 230.100 C 225.621 231.046,225.721 231.236,225.978 230.796 C 226.972 229.100,227.312 214.746,227.380 171.600 C 227.463 118.563,226.920 123.424,232.800 123.078 C 239.555 122.679,246.482 122.822,247.564 123.381 M215.098 124.213 C 217.443 125.635,217.474 131.026,215.160 135.065 L 213.823 137.400 213.547 146.600 C 213.185 158.637,212.499 175.069,212.211 178.600 C 212.085 180.140,211.890 182.750,211.777 184.400 C 211.664 186.050,211.407 188.120,211.205 189.000 C 211.004 189.880,210.734 192.940,210.606 195.800 C 210.477 198.660,210.199 202.260,209.988 203.800 C 209.776 205.340,209.245 210.470,208.807 215.200 C 208.370 219.930,207.830 224.813,207.608 226.050 C 207.386 227.288,206.928 231.338,206.590 235.050 C 206.251 238.763,205.793 242.790,205.572 244.000 C 205.350 245.210,205.016 247.280,204.829 248.600 C 204.428 251.437,204.357 251.642,202.317 255.859 C 200.906 258.777,200.717 259.531,200.516 263.059 C 200.392 265.227,200.038 267.500,199.729 268.112 C 199.420 268.723,199.292 269.426,199.445 269.674 C 199.611 269.941,199.544 270.013,199.282 269.851 C 199.006 269.680,198.742 270.104,198.576 270.985 C 198.431 271.760,198.154 272.295,197.961 272.176 C 195.939 270.926,193.736 277.095,195.515 279.025 C 196.445 280.034,197.345 282.242,197.032 282.748 C 196.897 282.966,196.956 283.249,197.162 283.376 C 197.368 283.504,197.493 284.187,197.439 284.894 C 197.385 285.601,197.578 286.634,197.868 287.190 C 198.158 287.745,198.399 288.650,198.404 289.200 C 198.410 289.750,198.855 290.618,199.394 291.130 C 200.347 292.033,200.506 292.561,200.999 296.450 C 201.602 301.200,195.110 301.908,191.552 297.480 C 190.811 296.558,189.598 295.271,188.855 294.619 C 186.987 292.979,185.816 290.989,185.195 288.400 C 184.093 283.801,184.060 244.238,185.152 236.600 C 185.372 235.060,185.670 232.905,185.814 231.810 C 186.070 229.869,186.089 229.845,186.624 230.810 C 186.925 231.355,187.181 231.620,187.192 231.400 C 187.203 231.180,187.352 231.220,187.523 231.490 C 187.695 231.759,188.187 232.035,188.617 232.101 C 189.048 232.168,189.616 232.358,189.880 232.523 C 191.155 233.319,191.600 222.041,191.634 188.000 C 191.671 151.258,192.088 127.478,192.722 125.924 C 193.669 123.606,195.552 123.227,205.600 123.337 C 212.953 123.417,213.934 123.508,215.098 124.213 " stroke="none" fill="#191d28" fill-rule="evenodd"></path><path id="path1" d="M271.800 82.506 C 269.676 83.864,268.778 84.719,266.453 87.599 C 265.654 88.589,264.820 89.590,264.600 89.824 C 262.871 91.661,239.798 92.650,209.800 92.172 C 164.721 91.454,126.162 91.895,124.912 93.145 C 123.855 94.202,124.514 110.930,125.875 117.600 C 126.073 118.570,126.135 118.538,127.939 116.558 C 130.445 113.809,133.273 112.416,135.778 112.699 C 137.257 112.865,138.063 112.707,139.531 111.963 C 141.313 111.058,141.927 111.000,152.734 110.699 C 163.891 110.388,164.090 110.368,165.527 109.392 C 166.329 108.846,167.304 108.400,167.693 108.400 C 168.082 108.400,168.400 108.264,168.400 108.098 C 168.400 107.761,169.730 107.138,172.317 106.263 C 173.774 105.770,174.339 105.762,176.043 106.211 C 177.932 106.710,178.166 106.683,179.988 105.769 C 181.526 104.996,182.528 104.799,184.862 104.811 C 186.478 104.819,189.330 104.617,191.200 104.363 C 196.131 103.692,223.885 103.445,229.800 104.020 C 232.440 104.277,237.223 104.539,240.429 104.602 C 250.345 104.800,253.743 105.787,257.286 109.500 C 258.072 110.324,258.506 110.400,262.446 110.400 C 266.887 110.400,268.209 110.666,269.328 111.785 C 269.721 112.178,271.135 112.577,272.890 112.789 C 274.490 112.983,276.363 113.316,277.050 113.529 C 278.239 113.897,278.344 113.838,279.199 112.316 C 279.694 111.436,280.904 109.809,281.888 108.701 C 283.775 106.576,284.898 104.378,285.356 101.912 C 285.507 101.093,286.071 99.902,286.608 99.263 C 289.126 96.272,289.691 91.900,287.717 90.680 C 287.412 90.492,287.200 89.584,287.200 88.469 C 287.200 85.952,286.508 85.094,283.513 83.896 C 276.741 81.189,274.312 80.900,271.800 82.506 M164.580 126.414 C 161.522 127.823,161.535 127.779,161.582 136.413 C 161.664 151.369,162.147 155.855,164.284 161.503 C 165.670 165.167,166.250 166.065,166.745 165.317 C 166.885 165.105,167.576 164.734,168.280 164.493 C 168.984 164.252,170.348 163.233,171.312 162.228 C 172.275 161.222,173.353 160.400,173.707 160.400 C 174.173 160.400,174.420 159.876,174.602 158.500 C 174.740 157.455,175.010 155.700,175.200 154.600 C 175.391 153.500,175.849 150.530,176.219 148.000 C 176.588 145.470,177.219 142.410,177.621 141.200 C 179.024 136.970,180.043 129.121,179.252 128.632 C 179.060 128.514,178.800 127.900,178.674 127.268 C 178.312 125.462,168.002 124.837,164.580 126.414 M196.334 127.219 L 194.600 128.838 194.700 135.519 C 194.845 145.179,196.428 166.679,197.195 169.400 C 197.380 170.060,197.647 171.279,197.786 172.109 C 198.031 173.565,198.070 173.597,198.909 173.009 C 199.387 172.674,200.166 172.400,200.640 172.400 C 201.754 172.400,202.229 171.769,202.581 169.822 C 202.864 168.254,204.286 165.112,205.579 163.200 C 206.337 162.078,207.600 157.729,207.600 156.238 C 207.600 154.689,208.768 150.331,209.599 148.782 C 210.508 147.086,211.072 144.845,211.606 140.800 C 211.824 139.150,212.280 136.450,212.619 134.800 C 213.727 129.404,213.736 129.219,212.972 127.801 C 211.906 125.821,211.028 125.600,204.215 125.600 L 198.067 125.600 196.334 127.219 M232.116 126.139 C 228.818 127.042,228.595 128.114,229.147 140.442 C 229.387 145.809,229.698 153.231,229.836 156.936 C 230.018 161.796,230.210 163.550,230.524 163.236 C 230.764 162.996,231.342 162.800,231.809 162.800 C 232.866 162.800,236.522 161.589,236.821 161.140 C 236.943 160.957,238.203 160.574,239.621 160.288 L 242.200 159.768 242.702 156.984 C 243.561 152.219,244.012 149.528,244.576 145.800 C 244.876 143.820,245.332 141.480,245.590 140.600 C 246.035 139.084,246.330 137.542,247.167 132.359 C 247.672 129.235,246.821 126.625,245.101 126.026 C 243.502 125.468,234.274 125.549,232.116 126.139 " stroke="none" fill="#dcc89d" fill-rule="evenodd"></path><path id="path2" d="M196.768 103.754 C 196.454 104.049,186.612 104.896,184.300 104.827 C 182.552 104.775,181.525 104.996,180.026 105.750 C 178.164 106.685,177.937 106.711,176.043 106.211 C 174.339 105.762,173.774 105.770,172.317 106.263 C 169.730 107.138,168.400 107.761,168.400 108.098 C 168.400 108.264,168.082 108.400,167.693 108.400 C 167.304 108.400,166.329 108.846,165.527 109.392 C 164.090 110.368,163.891 110.388,152.734 110.699 C 141.927 111.000,141.313 111.058,139.531 111.963 C 138.065 112.706,137.256 112.865,135.784 112.699 C 132.436 112.322,128.940 114.430,128.369 117.169 C 127.999 118.945,126.367 124.539,126.151 124.771 C 125.923 125.015,124.400 123.315,124.400 122.817 C 124.400 122.588,124.233 122.400,124.029 122.400 C 123.825 122.400,123.565 122.085,123.450 121.700 C 123.336 121.315,123.338 121.810,123.456 122.800 C 123.574 123.790,124.091 126.040,124.606 127.800 C 125.120 129.560,125.668 131.810,125.824 132.800 L 126.108 134.600 126.599 132.942 C 126.869 132.031,127.744 130.210,128.542 128.896 C 130.086 126.355,129.768 126.524,134.400 125.769 C 135.170 125.643,136.070 125.435,136.400 125.305 C 137.147 125.011,137.491 124.914,138.000 124.850 C 138.220 124.822,138.400 124.461,138.400 124.046 C 138.400 118.294,143.170 113.652,149.117 113.617 C 151.468 113.603,152.200 113.444,152.895 112.798 C 153.368 112.357,154.036 112.080,154.378 112.184 C 157.901 113.251,164.198 113.618,174.502 113.357 C 184.163 113.112,217.999 113.026,222.200 113.235 C 223.080 113.279,224.610 113.315,225.600 113.316 C 226.590 113.317,229.290 113.331,231.600 113.346 C 233.910 113.362,236.430 113.320,237.200 113.253 C 238.899 113.105,247.141 113.807,251.012 114.430 C 253.371 114.810,254.173 114.780,255.985 114.242 C 260.421 112.924,262.828 113.297,264.952 115.631 C 265.968 116.748,266.814 117.873,266.831 118.131 C 266.847 118.389,266.914 118.870,266.978 119.200 C 267.721 123.006,267.621 128.379,266.792 129.208 C 265.296 130.704,264.614 141.510,265.873 143.759 C 266.601 145.060,267.839 141.073,268.345 135.800 C 268.492 134.260,268.790 132.707,269.006 132.349 C 269.709 131.187,273.763 127.973,274.795 127.760 C 275.348 127.645,276.113 127.383,276.495 127.176 C 276.877 126.969,277.417 126.795,277.695 126.790 C 277.973 126.784,278.781 125.922,279.491 124.875 C 280.201 123.827,281.107 122.617,281.504 122.185 C 282.189 121.441,283.600 118.773,283.600 118.223 C 283.600 118.082,283.960 117.580,284.400 117.108 C 284.840 116.636,285.200 115.871,285.200 115.409 C 285.200 114.947,284.840 113.863,284.400 113.000 C 283.960 112.137,283.600 111.238,283.600 111.002 C 283.600 110.766,283.061 110.254,282.403 109.865 L 281.206 109.158 279.703 111.514 C 278.258 113.779,278.154 113.857,277.000 113.511 C 276.340 113.313,274.490 112.990,272.890 112.794 C 271.141 112.579,269.719 112.176,269.328 111.785 C 268.209 110.666,266.887 110.400,262.446 110.400 C 258.506 110.400,258.072 110.324,257.286 109.500 C 253.712 105.754,250.444 104.823,240.054 104.586 C 236.614 104.508,232.085 104.260,229.990 104.034 C 226.439 103.653,197.141 103.406,196.768 103.754 M245.322 150.174 C 245.060 150.474,244.645 150.785,244.401 150.866 C 243.928 151.024,243.382 152.994,242.651 157.184 L 242.200 159.768 239.621 160.288 C 238.203 160.574,236.943 160.957,236.821 161.140 C 236.514 161.601,232.854 162.800,231.752 162.800 C 230.612 162.800,230.500 162.995,230.368 165.201 C 230.261 167.002,229.401 168.571,228.743 168.165 C 227.985 167.696,229.409 191.542,230.186 192.320 C 230.304 192.437,230.400 192.323,230.400 192.067 C 230.400 191.810,230.689 191.600,231.043 191.600 C 231.397 191.600,232.554 190.745,233.614 189.700 C 235.948 187.399,237.217 186.400,237.802 186.400 C 238.224 186.400,239.871 183.394,241.526 179.600 C 241.959 178.610,242.528 176.630,242.793 175.200 C 243.057 173.770,243.441 171.790,243.645 170.800 C 244.037 168.905,244.989 161.994,245.601 156.600 C 245.801 154.840,246.086 152.545,246.234 151.500 C 246.505 149.592,246.210 149.163,245.322 150.174 M176.086 154.269 C 175.215 155.129,174.800 155.920,174.800 156.719 C 174.800 158.845,174.328 160.400,173.681 160.400 C 173.341 160.400,172.275 161.222,171.312 162.228 C 170.348 163.233,168.984 164.252,168.280 164.493 C 167.576 164.734,166.885 165.105,166.745 165.317 C 166.161 166.199,162.800 159.214,162.800 157.118 C 162.800 156.411,161.230 156.581,160.729 157.342 C 160.010 158.434,160.920 196.313,161.838 203.532 L 162.059 205.264 163.222 203.430 C 164.785 200.965,166.462 197.593,167.813 194.200 C 168.425 192.660,169.258 191.101,169.663 190.736 C 170.069 190.371,170.400 189.858,170.400 189.596 C 170.400 189.335,170.647 188.554,170.948 187.860 C 172.443 184.423,176.188 167.991,176.584 163.131 C 176.716 161.519,177.018 158.929,177.255 157.375 C 177.892 153.214,177.692 152.684,176.086 154.269 M209.446 154.186 C 209.091 154.728,208.800 155.408,208.800 155.696 C 208.800 155.984,208.266 157.296,207.613 158.610 C 206.959 159.925,206.419 161.242,206.413 161.538 C 206.406 161.834,206.063 162.554,205.651 163.138 C 204.345 164.991,202.875 168.189,202.581 169.822 C 202.229 171.769,201.754 172.400,200.640 172.400 C 200.166 172.400,199.387 172.674,198.909 173.009 C 198.070 173.597,198.031 173.565,197.786 172.109 C 197.647 171.279,197.384 170.060,197.203 169.400 C 197.021 168.740,196.773 167.241,196.651 166.070 C 196.480 164.420,196.201 163.759,195.415 163.141 C 194.857 162.701,194.400 162.085,194.400 161.771 C 194.400 161.457,194.226 161.200,194.014 161.200 C 191.486 161.200,193.654 184.943,197.213 196.228 C 197.426 196.904,197.603 197.894,197.606 198.428 C 197.621 200.772,198.279 200.218,198.952 197.294 C 199.946 192.977,200.742 190.443,201.637 188.741 C 203.036 186.083,204.314 182.232,204.604 179.800 C 204.990 176.564,205.700 173.956,207.119 170.559 C 208.219 167.926,208.724 165.410,209.601 158.200 C 209.788 156.660,210.130 154.905,210.361 154.300 C 210.882 152.933,210.314 152.862,209.446 154.186 " stroke="none" fill="#a47641" fill-rule="evenodd"></path><path id="path3" d="M126.100 90.676 C 126.485 90.776,127.115 90.776,127.500 90.676 C 127.885 90.575,127.570 90.493,126.800 90.493 C 126.030 90.493,125.715 90.575,126.100 90.676 M136.305 90.683 C 136.802 90.779,137.522 90.775,137.905 90.675 C 138.287 90.575,137.880 90.496,137.000 90.501 C 136.120 90.505,135.807 90.587,136.305 90.683 M218.522 90.699 C 220.899 90.770,224.679 90.769,226.922 90.698 C 229.165 90.627,227.220 90.569,222.600 90.569 C 217.980 90.570,216.145 90.628,218.522 90.699 M122.479 104.307 C 122.436 106.126,122.059 108.916,121.643 110.507 C 120.549 114.688,120.380 116.328,120.355 123.011 C 120.343 126.305,120.146 130.191,119.917 131.647 C 119.572 133.835,119.614 134.636,120.157 136.271 C 120.518 137.359,121.071 139.768,121.385 141.624 C 121.700 143.481,122.041 145.377,122.143 145.837 C 122.448 147.206,124.702 150.526,126.056 151.600 C 126.750 152.150,127.970 153.275,128.767 154.100 C 130.382 155.771,130.534 155.808,132.847 155.100 C 134.475 154.602,136.800 151.253,136.800 149.406 C 136.800 149.067,136.974 148.477,137.187 148.095 C 137.716 147.147,138.800 143.709,138.800 142.981 C 138.800 142.655,138.962 142.077,139.161 141.695 C 139.822 140.423,140.378 137.839,140.816 134.000 C 141.761 125.731,142.332 123.203,143.752 121.007 C 144.039 120.563,144.395 119.708,144.543 119.107 C 144.981 117.326,146.550 116.831,153.088 116.415 C 158.715 116.057,164.467 115.874,166.200 115.999 C 166.640 116.031,172.400 116.106,179.000 116.165 C 207.266 116.422,233.555 116.894,235.541 117.182 C 236.718 117.352,239.328 117.518,241.341 117.550 C 243.353 117.582,247.007 117.805,249.461 118.046 C 252.705 118.364,254.483 118.363,255.980 118.042 C 257.113 117.799,258.999 117.600,260.172 117.600 L 262.305 117.600 262.765 119.427 C 264.178 125.037,263.163 146.601,261.410 148.226 C 260.318 149.238,259.442 150.776,259.771 151.105 C 259.901 151.234,259.620 151.753,259.146 152.258 C 258.184 153.282,257.461 156.751,257.839 158.535 L 258.079 159.670 258.637 158.593 C 258.944 158.001,259.104 157.368,258.991 157.186 C 258.879 157.004,258.973 156.740,259.200 156.600 C 259.427 156.460,259.509 156.177,259.383 155.972 C 259.256 155.768,259.433 155.600,259.776 155.600 C 260.119 155.600,260.400 155.450,260.400 155.267 C 260.400 154.630,262.110 155.064,263.008 155.930 C 263.506 156.408,264.112 156.800,264.356 156.800 C 264.600 156.800,264.800 156.937,264.800 157.104 C 264.800 158.578,266.421 158.253,268.326 156.397 C 270.269 154.504,273.200 153.830,273.200 155.276 C 273.200 155.480,273.365 155.545,273.566 155.421 C 273.767 155.297,274.023 155.421,274.134 155.698 C 274.256 156.001,274.349 155.922,274.368 155.500 C 274.386 155.115,274.625 154.786,274.900 154.769 C 275.175 154.753,275.760 154.652,276.200 154.546 C 276.640 154.440,277.215 154.334,277.478 154.310 C 277.741 154.286,277.937 154.162,277.914 154.033 C 277.891 153.905,278.257 152.990,278.727 152.000 C 279.198 151.010,279.586 149.399,279.591 148.421 C 279.602 146.286,281.326 140.429,282.600 138.200 C 283.567 136.507,284.955 132.687,285.404 130.479 C 285.552 129.752,286.508 127.502,287.528 125.479 C 290.046 120.486,290.137 118.043,287.886 115.857 C 286.052 114.076,286.239 114.066,285.152 116.000 C 284.657 116.880,284.106 117.600,283.926 117.600 C 283.747 117.600,283.600 117.798,283.600 118.040 C 283.600 118.742,282.292 121.328,281.504 122.185 C 281.107 122.617,280.201 123.827,279.491 124.875 C 278.781 125.922,277.973 126.784,277.695 126.790 C 277.417 126.795,276.877 126.969,276.495 127.176 C 276.113 127.383,275.348 127.645,274.795 127.760 C 273.763 127.973,269.709 131.187,269.006 132.349 C 268.790 132.707,268.492 134.260,268.345 135.800 C 267.839 141.073,266.601 145.060,265.873 143.759 C 264.614 141.510,265.296 130.704,266.792 129.208 C 267.621 128.379,267.721 123.006,266.978 119.200 C 266.914 118.870,266.847 118.389,266.831 118.131 C 266.814 117.873,265.968 116.748,264.952 115.631 C 262.828 113.297,260.421 112.924,255.985 114.242 C 254.173 114.780,253.371 114.810,251.012 114.430 C 247.141 113.807,238.899 113.105,237.200 113.253 C 236.430 113.320,233.910 113.362,231.600 113.346 C 229.290 113.331,226.590 113.317,225.600 113.316 C 224.610 113.315,223.080 113.279,222.200 113.235 C 218.079 113.030,184.293 113.108,175.265 113.344 C 169.690 113.490,160.870 113.618,155.665 113.628 L 146.200 113.646 144.000 114.749 C 141.050 116.226,138.400 120.627,138.400 124.046 C 138.400 124.461,138.220 124.822,138.000 124.850 C 137.491 124.914,137.147 125.011,136.400 125.305 C 136.070 125.435,135.170 125.643,134.400 125.769 C 129.768 126.524,130.086 126.355,128.542 128.896 C 127.744 130.210,126.869 132.031,126.599 132.942 L 126.108 134.600 125.824 132.800 C 125.668 131.810,125.123 129.560,124.612 127.800 C 124.102 126.040,123.554 124.060,123.393 123.400 C 123.233 122.740,122.980 117.430,122.830 111.600 C 122.681 105.770,122.523 102.488,122.479 104.307 M191.894 146.600 C 191.733 156.060,191.601 176.310,191.602 191.600 C 191.602 222.034,191.128 233.302,189.880 232.523 C 189.616 232.358,189.048 232.168,188.617 232.101 C 188.187 232.035,187.695 231.759,187.523 231.490 C 187.352 231.220,187.203 231.180,187.192 231.400 C 187.181 231.620,186.925 231.355,186.624 230.810 C 186.089 229.845,186.070 229.869,185.814 231.810 C 185.670 232.905,185.372 235.060,185.152 236.600 C 184.060 244.238,184.093 283.801,185.195 288.400 C 185.816 290.989,186.987 292.979,188.855 294.619 C 189.598 295.271,190.811 296.558,191.552 297.480 C 195.110 301.908,201.602 301.200,200.999 296.450 C 200.506 292.561,200.347 292.033,199.394 291.130 C 198.855 290.618,198.410 289.750,198.404 289.200 C 198.399 288.650,198.158 287.745,197.868 287.190 C 197.578 286.634,197.385 285.601,197.439 284.894 C 197.493 284.187,197.368 283.504,197.162 283.376 C 196.956 283.249,196.897 282.966,197.032 282.748 C 197.345 282.242,196.445 280.034,195.515 279.025 C 193.736 277.095,195.939 270.926,197.961 272.176 C 198.154 272.295,198.431 271.760,198.576 270.985 C 198.742 270.104,199.006 269.680,199.282 269.851 C 199.544 270.013,199.611 269.941,199.445 269.674 C 199.292 269.426,199.420 268.723,199.729 268.112 C 200.038 267.500,200.392 265.227,200.516 263.059 C 200.717 259.531,200.906 258.777,202.317 255.859 C 204.357 251.642,204.428 251.437,204.829 248.600 C 205.016 247.280,205.350 245.210,205.572 244.000 C 205.793 242.790,206.251 238.763,206.590 235.050 C 206.928 231.338,207.386 227.288,207.608 226.050 C 207.830 224.813,208.370 219.930,208.807 215.200 C 209.245 210.470,209.776 205.340,209.988 203.800 C 210.199 202.260,210.477 198.660,210.606 195.800 C 210.734 192.940,211.004 189.880,211.205 189.000 C 211.407 188.120,211.664 186.050,211.777 184.400 C 211.890 182.750,212.085 180.140,212.211 178.600 C 212.819 171.151,213.828 140.039,213.449 140.418 C 213.347 140.520,213.066 142.725,212.824 145.319 C 212.583 147.912,212.222 150.341,212.021 150.717 C 210.647 153.295,209.924 155.501,209.616 158.056 C 208.733 165.373,208.226 167.909,207.119 170.559 C 205.700 173.956,204.990 176.564,204.604 179.800 C 204.314 182.232,203.036 186.083,201.637 188.741 C 200.742 190.443,199.946 192.977,198.952 197.294 C 198.279 200.218,197.621 200.772,197.606 198.428 C 197.603 197.894,197.426 196.904,197.213 196.228 C 196.547 194.119,194.455 185.116,194.046 182.600 C 193.474 179.087,193.150 171.390,192.641 149.200 L 192.186 129.400 191.894 146.600 M248.800 141.060 C 248.800 142.866,248.288 145.120,246.541 151.000 C 246.214 152.100,245.786 154.530,245.591 156.400 C 245.076 161.317,244.077 168.713,243.645 170.800 C 243.441 171.790,243.057 173.770,242.793 175.200 C 242.528 176.630,241.959 178.610,241.526 179.600 C 239.871 183.394,238.224 186.400,237.802 186.400 C 237.217 186.400,235.948 187.399,233.614 189.700 C 232.554 190.745,231.397 191.600,231.043 191.600 C 230.689 191.600,230.400 191.810,230.400 192.067 C 230.400 192.323,230.303 192.437,230.186 192.319 C 229.598 191.732,228.773 179.819,228.388 166.358 C 227.600 138.868,227.269 143.210,227.333 180.200 C 227.393 215.098,227.021 229.017,225.980 230.793 C 225.720 231.237,225.621 231.051,225.612 230.100 C 225.604 229.278,225.416 228.837,225.100 228.900 C 224.787 228.963,224.553 228.436,224.475 227.492 C 224.407 226.662,224.182 226.088,223.975 226.215 C 223.769 226.343,223.600 226.284,223.600 226.085 C 223.600 225.885,223.248 225.317,222.818 224.821 L 222.036 223.919 221.841 224.859 C 218.804 239.562,218.770 273.382,221.791 274.541 C 223.098 275.043,225.481 270.529,225.562 267.400 C 225.655 263.833,225.872 263.320,227.202 263.515 C 227.845 263.609,228.333 263.892,228.286 264.143 C 228.163 264.800,230.196 264.941,230.850 264.322 C 231.421 263.780,232.986 262.969,233.965 262.708 C 234.591 262.540,234.845 261.659,234.833 259.700 C 234.828 258.985,234.999 258.400,235.212 258.400 C 235.425 258.400,235.600 258.127,235.600 257.793 C 235.600 257.459,236.189 256.604,236.909 255.893 C 238.499 254.322,240.127 250.237,241.011 245.600 C 241.367 243.730,241.826 242.140,242.029 242.067 C 242.233 241.993,242.404 240.823,242.408 239.467 C 242.416 237.162,242.783 234.289,243.619 230.000 C 244.303 226.494,244.734 222.928,245.192 217.000 C 245.447 213.700,245.816 209.650,246.012 208.000 C 246.208 206.350,246.476 202.660,246.608 199.800 C 246.739 196.940,247.189 192.080,247.607 189.000 C 248.354 183.489,249.593 139.860,249.019 139.285 C 248.898 139.165,248.800 139.964,248.800 141.060 M159.485 150.400 C 159.314 155.350,158.997 172.491,158.781 188.492 L 158.387 217.584 157.393 219.048 C 156.847 219.853,156.400 220.824,156.400 221.207 C 156.400 221.589,156.132 222.124,155.804 222.396 C 155.477 222.668,155.307 223.050,155.428 223.245 C 155.549 223.440,155.280 223.600,154.831 223.600 C 153.853 223.600,153.777 223.901,153.217 230.000 C 152.096 242.203,152.703 256.800,154.332 256.800 C 154.482 256.800,154.830 257.295,155.105 257.900 C 155.380 258.505,157.040 260.530,158.794 262.400 C 160.549 264.270,161.987 265.935,161.992 266.100 C 161.996 266.265,162.184 266.400,162.408 266.400 C 162.632 266.400,163.525 266.847,164.391 267.394 C 165.257 267.941,166.648 268.550,167.483 268.748 C 168.317 268.946,169.270 269.215,169.600 269.346 C 171.136 269.956,172.803 263.308,172.062 259.522 C 171.360 255.928,171.377 246.400,172.086 246.400 C 172.259 246.400,172.411 245.635,172.424 244.700 C 172.448 242.979,172.604 241.961,173.725 236.200 C 174.068 234.440,174.542 231.380,174.779 229.400 C 175.016 227.420,175.389 224.810,175.607 223.600 C 176.401 219.196,177.510 205.624,178.190 192.000 C 178.483 186.118,178.664 184.193,179.355 179.600 C 180.072 174.837,181.244 140.867,180.631 142.600 C 180.554 142.820,180.260 144.080,179.978 145.400 C 179.696 146.720,179.342 147.980,179.191 148.200 C 178.213 149.623,177.603 153.033,176.782 161.654 C 176.185 167.935,172.589 184.089,170.948 187.860 C 170.647 188.554,170.400 189.335,170.400 189.596 C 170.400 189.858,170.069 190.371,169.663 190.736 C 169.258 191.101,168.425 192.660,167.813 194.200 C 166.462 197.593,164.785 200.965,163.222 203.430 L 162.059 205.264 161.840 203.532 C 161.127 197.863,160.805 190.011,160.564 172.400 C 160.415 161.510,160.181 150.080,160.044 147.000 L 159.795 141.400 159.485 150.400 " stroke="none" fill="#653d15" fill-rule="evenodd"></path><path id="path4" d="M271.938 65.332 C 270.485 66.318,266.273 68.399,265.725 68.401 C 265.546 68.402,264.770 68.803,264.000 69.293 C 263.230 69.782,261.520 70.553,260.200 71.005 C 258.178 71.699,257.611 72.116,256.600 73.654 C 255.940 74.658,254.545 76.310,253.500 77.325 C 252.455 78.340,251.600 79.537,251.600 79.985 C 251.600 80.433,251.441 80.800,251.247 80.800 C 251.052 80.800,250.772 81.933,250.624 83.318 C 250.392 85.485,250.159 86.029,248.960 87.218 C 248.193 87.978,247.204 88.978,246.762 89.441 C 245.384 90.883,196.146 91.046,186.800 89.640 C 178.100 88.331,166.245 88.323,155.800 89.619 C 154.040 89.838,146.335 90.238,138.677 90.508 C 124.913 90.994,124.743 91.011,123.777 91.942 L 122.800 92.884 122.800 106.562 C 122.800 119.864,123.007 122.386,124.100 122.397 C 124.265 122.399,124.400 122.588,124.400 122.817 C 124.400 123.315,125.923 125.015,126.151 124.771 C 126.388 124.516,128.052 118.784,128.291 117.400 L 128.498 116.200 127.270 117.354 L 126.043 118.509 125.857 117.554 C 124.496 110.568,123.863 94.195,124.912 93.145 C 126.162 91.895,164.721 91.454,209.800 92.172 C 239.798 92.650,262.871 91.661,264.600 89.824 C 264.820 89.590,265.654 88.589,266.453 87.599 C 269.952 83.264,273.231 80.982,275.342 81.410 C 283.881 83.144,287.200 85.120,287.200 88.469 C 287.200 89.584,287.412 90.492,287.717 90.680 C 289.691 91.900,289.126 96.272,286.608 99.263 C 286.071 99.902,285.507 101.093,285.356 101.912 C 284.958 104.051,283.881 106.405,282.605 107.922 C 281.519 109.211,281.834 110.325,283.300 110.387 C 283.465 110.394,283.600 110.632,283.600 110.915 C 283.600 111.199,283.960 112.137,284.400 113.000 C 284.840 113.863,285.200 114.835,285.200 115.161 C 285.200 115.614,285.326 115.581,285.735 115.021 C 286.593 113.848,289.120 116.504,289.452 118.928 C 289.714 120.840,290.938 121.864,292.404 121.399 C 292.795 121.275,293.405 121.462,293.758 121.815 C 294.347 122.405,294.400 122.389,294.400 121.629 C 294.400 121.173,294.560 120.800,294.757 120.800 C 294.953 120.800,295.222 120.395,295.356 119.900 C 295.489 119.405,296.214 118.550,296.967 118.000 C 297.720 117.450,298.653 116.460,299.040 115.800 C 299.719 114.642,301.555 112.801,302.032 112.800 C 302.462 112.800,306.276 109.015,307.443 107.431 L 308.600 105.862 308.631 96.431 C 308.667 85.868,308.529 85.171,305.819 82.244 C 305.027 81.389,304.075 80.174,303.703 79.544 C 303.332 78.915,302.886 78.400,302.714 78.400 C 302.541 78.400,302.400 78.130,302.400 77.800 C 302.400 77.470,302.085 76.877,301.700 76.483 C 301.315 76.088,300.640 75.258,300.200 74.638 C 299.760 74.018,299.175 73.274,298.900 72.984 C 298.625 72.694,298.400 72.354,298.400 72.229 C 298.400 71.810,295.711 68.895,293.565 66.987 C 290.870 64.591,286.320 63.782,284.777 65.424 C 283.594 66.683,282.041 66.675,280.162 65.400 C 278.096 63.998,273.955 63.963,271.938 65.332 M153.029 112.607 C 151.809 113.532,152.453 113.688,157.256 113.628 C 162.817 113.559,163.005 113.434,158.425 112.846 C 156.445 112.592,154.594 112.303,154.313 112.204 C 154.031 112.104,153.453 112.286,153.029 112.607 M176.735 122.999 C 176.625 123.108,173.459 123.243,169.697 123.299 C 159.366 123.452,159.427 123.359,159.770 138.200 C 160.022 149.149,160.455 158.035,160.700 157.300 C 160.792 157.025,161.212 156.800,161.633 156.800 C 162.055 156.800,162.396 156.575,162.391 156.300 C 162.387 156.025,162.213 153.190,162.006 150.000 C 161.313 139.354,161.427 128.854,162.246 127.949 C 164.873 125.046,178.119 124.497,178.674 127.268 C 178.800 127.900,179.060 128.514,179.252 128.632 C 180.043 129.121,179.024 136.970,177.621 141.200 C 177.219 142.410,176.589 145.470,176.220 148.000 C 175.851 150.530,175.452 153.114,175.334 153.742 L 175.118 154.885 176.365 153.963 C 177.164 153.372,177.767 152.458,178.042 151.420 C 178.278 150.529,178.703 149.260,178.986 148.600 C 179.746 146.824,180.332 144.456,180.568 142.200 C 181.953 129.006,181.771 125.816,179.521 123.900 C 178.325 122.881,177.212 122.521,176.735 122.999 M232.800 123.078 C 227.636 123.382,227.598 123.482,227.607 136.708 C 227.611 142.149,227.789 150.192,228.002 154.582 C 228.215 158.973,228.415 163.791,228.446 165.290 C 228.507 168.261,228.763 168.746,229.718 167.691 C 230.163 167.199,230.308 166.366,230.223 164.800 C 230.157 163.590,229.985 159.810,229.840 156.400 C 229.695 152.990,229.383 145.832,229.146 140.494 C 228.490 125.709,228.563 125.600,239.117 125.600 C 246.554 125.600,248.056 126.861,247.167 132.359 C 246.330 137.542,246.035 139.084,245.590 140.600 C 245.332 141.480,244.887 143.820,244.601 145.800 C 244.315 147.780,243.942 149.938,243.773 150.596 C 243.492 151.687,243.523 151.739,244.119 151.196 C 245.884 149.586,246.079 149.480,246.380 149.967 C 248.014 152.611,250.619 127.931,249.030 124.858 C 247.989 122.845,244.060 122.414,232.800 123.078 M196.200 123.554 C 194.277 124.046,193.189 124.776,192.781 125.850 C 192.097 127.650,192.593 163.070,193.285 161.834 C 193.718 161.060,194.400 161.001,194.400 161.738 C 194.400 162.358,195.901 163.832,196.214 163.519 C 196.329 163.404,196.242 161.260,196.021 158.755 C 195.243 149.950,194.799 142.135,194.700 135.519 L 194.600 128.838 196.334 127.219 L 198.067 125.600 204.215 125.600 C 211.028 125.600,211.906 125.821,212.972 127.801 C 213.736 129.219,213.727 129.404,212.619 134.800 C 212.280 136.450,211.824 139.150,211.606 140.800 C 211.072 144.845,210.508 147.086,209.599 148.782 C 208.730 150.402,207.600 154.712,207.600 156.406 C 207.600 157.034,207.419 158.055,207.198 158.674 C 206.815 159.744,206.826 159.761,207.421 159.000 C 207.766 158.560,208.262 157.401,208.524 156.424 C 208.800 155.392,209.545 154.118,210.300 153.383 C 211.015 152.688,211.600 151.858,211.600 151.540 C 211.600 151.221,211.773 150.787,211.983 150.577 C 212.194 150.366,212.559 148.215,212.793 145.797 C 213.522 138.273,213.794 136.940,214.939 135.288 C 217.517 131.569,217.590 125.744,215.078 124.208 C 213.703 123.367,198.932 122.856,196.200 123.554 " stroke="none" fill="#786d60" fill-rule="evenodd"></path></g></svg>