<svg id="svg" version="1.1" xmlns="http://www.w3.org/2000/svg" xmlns:xlink="http://www.w3.org/1999/xlink" width="400" height="400" viewBox="0, 0, 400,400"><g id="svgg"><path id="path0" d="M0.000 200.000 L 0.000 400.000 200.000 400.000 L 400.000 400.000 400.000 200.000 L 400.000 0.000 200.000 0.000 L 0.000 0.000 0.000 200.000 M34.907 152.100 C 35.351 152.938,35.740 155.106,35.999 158.200 C 36.684 166.366,36.835 167.735,37.275 169.800 C 37.510 170.900,37.922 172.070,38.191 172.400 C 39.022 173.417,40.291 176.117,40.764 177.869 C 41.011 178.787,41.930 180.491,42.805 181.656 C 43.680 182.820,44.508 184.366,44.643 185.091 C 44.779 185.816,45.050 186.507,45.245 186.628 C 45.440 186.749,45.600 187.123,45.600 187.461 C 45.600 187.798,45.941 188.507,46.358 189.037 C 47.217 190.130,47.033 191.624,45.546 195.600 C 44.525 198.329,44.546 200.374,45.604 201.261 C 47.207 202.605,47.453 205.834,46.098 207.737 C 45.447 208.652,44.699 210.061,44.436 210.868 C 44.108 211.879,43.622 212.453,42.876 212.713 C 41.872 213.063,41.207 213.957,40.645 215.709 C 40.520 216.099,40.099 216.521,39.709 216.647 C 36.629 217.639,36.133 218.191,37.536 219.067 C 37.990 219.351,38.488 219.390,38.836 219.169 C 39.146 218.973,39.880 218.809,40.467 218.806 C 42.035 218.797,42.800 218.405,42.800 217.612 C 42.800 216.353,44.762 214.800,46.355 214.798 C 47.150 214.796,48.322 214.523,48.960 214.190 C 50.365 213.457,50.241 213.313,50.575 216.066 C 50.790 217.844,50.723 218.405,50.266 218.666 C 49.946 218.850,49.287 219.764,48.803 220.697 C 47.620 222.977,46.105 224.171,43.322 225.019 C 40.289 225.942,40.248 225.993,40.731 228.254 C 40.957 229.317,40.996 230.370,40.817 230.593 C 40.637 230.817,40.368 231.743,40.218 232.651 C 39.582 236.513,32.655 238.215,28.980 235.412 C 25.910 233.070,27.515 231.368,33.526 230.592 C 36.099 230.260,36.009 230.119,32.741 229.352 C 29.774 228.655,27.858 228.896,27.037 230.069 C 26.034 231.500,25.139 230.735,25.448 228.710 C 25.592 227.770,25.869 226.796,26.065 226.547 C 27.022 225.327,20.990 224.775,19.639 225.958 C 18.644 226.829,16.745 227.009,14.800 226.415 C 13.864 226.130,13.851 226.092,14.600 225.821 C 17.629 224.727,18.429 224.215,18.640 223.235 C 19.036 221.392,19.690 220.449,21.003 219.825 C 22.657 219.041,23.247 218.323,22.815 217.624 C 21.964 216.247,18.222 212.400,17.734 212.400 C 17.435 212.400,16.532 211.365,15.727 210.100 C 14.923 208.835,13.963 207.530,13.594 207.200 C 9.502 203.536,10.907 191.600,15.430 191.600 C 16.431 191.600,16.474 191.520,16.229 190.100 C 15.546 186.139,15.522 180.191,16.178 177.934 C 16.949 175.283,17.586 174.669,21.600 172.706 C 23.131 171.957,24.380 169.280,24.394 166.714 C 24.400 165.544,25.516 161.928,25.972 161.600 C 26.124 161.490,26.584 160.144,26.994 158.609 C 27.403 157.074,28.067 155.465,28.469 155.034 C 28.871 154.602,29.200 154.101,29.200 153.919 C 29.200 153.738,30.190 153.121,31.400 152.548 C 32.610 151.975,33.600 151.347,33.600 151.153 C 33.600 150.391,34.252 150.864,34.907 152.100 M25.474 175.480 C 23.884 178.501,24.784 183.855,27.245 186.012 C 27.888 186.575,28.628 187.811,28.914 188.798 C 29.359 190.338,29.604 190.609,30.765 190.846 C 32.276 191.155,32.785 191.747,32.794 193.204 C 32.802 194.510,34.117 195.380,35.204 194.798 C 35.984 194.380,35.984 194.367,35.195 192.895 C 34.758 192.079,34.400 191.106,34.400 190.733 C 34.400 190.359,34.003 189.928,33.519 189.774 C 32.055 189.310,31.265 188.037,30.632 185.127 C 30.503 184.536,30.058 183.945,29.643 183.814 C 28.791 183.543,27.340 180.024,26.610 176.460 L 26.148 174.200 25.474 175.480 M388.296 185.058 C 390.921 187.009,390.521 193.863,387.689 195.444 C 382.494 198.346,379.070 195.605,379.174 188.627 C 379.237 184.359,384.556 182.278,388.296 185.058 M137.471 188.429 C 141.819 189.025,145.600 191.462,145.600 193.669 C 145.600 193.969,146.331 195.100,147.225 196.181 C 148.874 198.177,149.102 199.705,147.868 200.490 C 146.056 201.642,139.643 200.452,139.587 198.953 C 139.557 198.160,138.010 196.800,137.136 196.798 C 136.621 196.796,135.750 196.565,135.200 196.285 C 134.650 196.004,133.426 195.523,132.480 195.216 C 131.534 194.910,130.672 194.516,130.564 194.342 C 130.391 194.063,127.648 195.091,126.000 196.054 C 125.670 196.246,124.636 196.799,123.702 197.281 C 122.768 197.763,121.902 198.527,121.777 198.979 C 121.652 199.430,121.392 200.160,121.200 200.600 C 118.781 206.139,119.718 221.075,122.658 223.836 C 123.616 224.736,124.400 225.653,124.400 225.872 C 124.400 228.725,134.852 227.923,137.983 224.830 C 142.490 220.379,144.652 219.355,147.365 220.387 C 150.423 221.549,150.298 225.558,147.124 228.109 C 146.286 228.783,145.600 229.498,145.600 229.698 C 145.600 229.898,145.029 230.633,144.331 231.331 L 143.063 232.600 132.631 232.726 C 120.193 232.875,120.394 232.905,116.986 230.389 C 115.503 229.295,114.047 228.400,113.749 228.400 C 113.452 228.400,112.531 227.365,111.704 226.100 C 110.877 224.835,109.882 223.563,109.494 223.273 C 105.835 220.542,106.035 202.924,109.762 199.703 C 110.333 199.209,110.800 198.540,110.800 198.217 C 110.800 197.512,113.105 194.800,113.703 194.800 C 113.934 194.800,114.740 194.080,115.493 193.200 C 116.246 192.320,117.198 191.600,117.608 191.600 C 118.017 191.600,118.450 191.443,118.568 191.252 C 118.686 191.060,119.331 190.794,119.999 190.660 C 120.668 190.526,121.598 190.060,122.066 189.624 C 122.534 189.188,123.746 188.723,124.759 188.590 C 125.771 188.458,126.870 188.291,127.200 188.221 C 128.635 187.914,134.599 188.035,137.471 188.429 M170.921 189.162 C 171.624 189.608,172.951 190.352,173.868 190.816 C 177.988 192.896,177.794 202.813,173.655 201.730 C 172.834 201.515,170.400 199.084,170.400 198.478 C 170.400 198.316,169.589 197.740,168.597 197.199 C 167.606 196.657,166.701 195.918,166.586 195.557 C 166.064 193.912,162.451 194.333,160.612 196.252 L 158.940 197.997 160.086 200.384 C 161.244 202.798,162.436 203.590,164.920 203.598 C 165.786 203.600,167.896 204.630,169.000 205.588 C 169.440 205.970,170.769 206.591,171.953 206.967 C 174.868 207.893,175.800 208.571,176.802 210.493 C 177.270 211.392,178.059 212.446,178.555 212.836 C 180.407 214.293,181.163 221.449,179.698 223.646 C 179.314 224.222,178.481 225.482,177.846 226.446 C 176.650 228.264,175.430 229.600,174.965 229.600 C 174.818 229.600,174.011 230.220,173.172 230.977 C 171.190 232.768,170.372 232.889,161.308 232.732 C 151.605 232.564,150.987 232.120,150.511 224.970 C 150.146 219.479,155.009 217.408,156.781 222.300 C 158.387 226.734,162.633 228.445,168.595 227.060 C 170.590 226.596,170.591 226.596,170.868 224.659 C 171.020 223.594,171.234 222.632,171.344 222.523 C 171.718 222.149,170.183 220.090,168.451 218.642 C 166.719 217.196,166.403 217.067,163.400 216.594 C 161.655 216.319,159.188 215.046,158.680 214.159 C 158.504 213.851,158.020 213.600,157.604 213.600 C 157.188 213.600,156.736 213.420,156.600 213.200 C 156.464 212.980,156.081 212.800,155.750 212.800 C 153.623 212.800,151.083 209.008,150.595 205.102 C 150.380 203.374,150.129 202.768,149.556 202.586 C 148.594 202.281,148.596 201.788,149.562 201.112 C 150.043 200.774,150.432 199.845,150.617 198.589 C 151.304 193.934,154.377 190.400,157.740 190.400 C 158.103 190.400,158.400 190.226,158.400 190.014 C 158.400 188.052,168.126 187.390,170.921 189.162 M249.257 189.482 C 250.058 189.953,251.564 190.466,252.603 190.621 C 257.796 191.400,259.667 199.174,255.276 201.731 L 253.952 202.501 252.479 201.309 C 251.669 200.653,250.856 199.594,250.673 198.955 C 250.374 197.913,249.959 197.671,246.670 196.614 C 244.651 195.965,242.856 195.319,242.681 195.178 C 241.474 194.208,233.809 197.457,233.199 199.198 C 232.928 199.969,231.968 201.770,231.065 203.200 L 229.423 205.800 229.411 211.800 L 229.400 217.800 230.800 219.888 C 231.570 221.037,232.817 222.964,233.570 224.172 C 234.551 225.743,235.261 226.438,236.066 226.614 C 236.685 226.750,237.294 227.028,237.419 227.231 C 237.975 228.131,246.236 227.659,246.705 226.700 C 248.403 223.229,247.254 216.400,244.973 216.400 C 243.974 216.400,242.715 214.126,243.245 213.277 C 244.176 211.785,245.236 211.515,251.002 211.300 C 260.815 210.932,263.443 212.526,260.300 216.940 C 259.473 218.101,259.061 219.747,258.580 223.800 C 257.555 232.441,257.168 232.672,243.225 232.975 C 231.925 233.221,229.143 232.875,227.324 231.003 C 226.574 230.231,225.723 229.600,225.431 229.600 C 225.139 229.600,224.383 229.062,223.750 228.404 C 223.118 227.746,221.941 226.531,221.136 225.704 C 219.741 224.270,218.400 221.272,218.400 219.586 C 218.400 219.154,218.265 218.799,218.100 218.797 C 216.039 218.775,215.550 208.303,217.510 206.183 C 217.908 205.752,218.457 204.396,218.730 203.169 C 219.401 200.153,220.183 198.821,222.955 195.975 C 226.353 192.485,227.534 191.699,230.423 190.999 C 231.840 190.655,233.360 190.168,233.800 189.916 C 236.485 188.379,236.569 188.365,242.200 188.495 C 247.059 188.608,247.993 188.739,249.257 189.482 M198.921 189.446 C 200.193 190.168,200.342 194.071,199.135 195.032 C 196.740 196.940,196.800 196.506,196.800 212.027 C 196.800 227.712,196.634 226.651,199.297 227.983 C 201.311 228.991,201.739 230.152,200.539 231.352 C 199.135 232.756,197.995 232.899,189.457 232.739 L 182.052 232.600 180.855 231.454 C 179.331 229.992,179.702 228.969,182.247 227.619 C 183.235 227.095,184.194 226.381,184.378 226.033 C 184.655 225.510,185.037 203.964,184.854 199.187 C 184.804 197.875,184.044 196.549,182.300 194.730 C 181.810 194.219,181.600 193.353,181.600 191.845 L 181.600 189.691 183.900 189.345 C 187.068 188.870,198.036 188.943,198.921 189.446 M72.700 190.088 C 74.515 190.068,76.887 189.996,77.971 189.926 C 80.551 189.761,82.145 190.844,82.321 192.881 C 82.446 194.334,82.260 194.557,78.708 197.225 L 77.616 198.045 77.824 206.523 C 78.042 215.444,78.646 220.028,79.993 222.984 C 80.437 223.959,80.800 225.104,80.800 225.530 C 80.800 226.848,82.924 227.400,88.000 227.400 C 93.929 227.400,94.547 227.216,95.350 225.209 C 95.701 224.330,96.313 223.287,96.708 222.892 C 98.730 220.870,98.937 219.595,98.683 210.743 C 98.552 206.188,98.271 202.132,98.060 201.730 C 97.848 201.329,97.479 200.262,97.240 199.361 C 97.000 198.459,96.398 197.267,95.902 196.712 C 93.558 194.091,93.497 193.958,93.757 192.063 C 94.067 189.800,94.375 189.606,97.600 189.638 C 105.843 189.718,107.883 191.315,105.408 195.749 L 104.416 197.526 104.508 209.700 C 104.605 222.594,104.565 222.930,102.666 225.000 C 102.262 225.440,101.654 226.340,101.315 227.000 C 100.054 229.450,96.511 232.340,94.466 232.586 C 93.440 232.709,91.499 232.988,90.154 233.205 C 86.381 233.814,79.285 233.519,74.682 232.561 C 73.588 232.333,71.600 230.811,71.600 230.200 C 71.600 229.813,69.666 228.000,69.253 228.000 C 67.811 228.000,67.461 225.148,67.169 211.000 C 67.011 203.300,66.862 196.953,66.840 196.896 C 66.818 196.839,65.900 196.239,64.800 195.562 C 62.520 194.159,62.422 193.782,63.780 191.632 C 64.987 189.719,65.340 189.557,67.600 189.872 C 68.590 190.010,70.885 190.107,72.700 190.088 M16.543 192.205 C 15.891 193.904,17.568 198.047,19.174 198.702 C 19.917 199.005,20.582 199.656,20.812 200.306 C 21.492 202.225,21.853 202.596,23.241 202.800 C 24.471 202.981,24.641 203.171,25.032 204.800 C 25.436 206.489,25.553 206.608,26.925 206.724 C 28.857 206.887,30.165 206.233,28.784 205.795 C 27.479 205.381,26.830 204.650,26.558 203.290 C 26.390 202.448,25.975 202.007,25.030 201.665 C 23.750 201.202,22.961 200.158,22.715 198.601 C 22.646 198.159,21.991 197.520,21.248 197.169 C 20.131 196.642,19.771 196.123,19.097 194.068 C 18.280 191.576,17.111 190.724,16.543 192.205 M37.294 197.198 C 36.563 198.369,37.982 199.847,38.929 198.900 C 39.481 198.347,39.481 198.190,38.926 197.343 C 38.173 196.193,37.935 196.172,37.294 197.198 M363.081 203.250 C 363.697 203.497,364.603 203.886,365.095 204.115 C 365.726 204.407,366.447 204.393,367.541 204.065 C 372.429 202.600,377.258 203.780,380.800 207.303 C 384.762 211.244,384.577 210.820,384.739 216.333 C 384.996 225.075,384.737 225.743,378.885 231.430 C 377.610 232.669,374.869 233.065,370.264 232.675 C 364.854 232.217,364.800 232.271,364.800 238.183 L 364.800 242.641 366.629 244.384 L 368.458 246.127 367.233 247.352 L 366.008 248.577 360.612 248.735 C 351.081 249.013,347.392 246.794,352.698 243.973 L 354.600 242.962 354.725 232.781 C 354.895 218.876,354.560 212.905,353.594 212.598 C 352.018 212.098,351.325 206.304,352.700 205.123 C 354.827 203.296,360.604 202.254,363.081 203.250 M279.760 203.635 C 283.679 203.581,285.151 204.742,285.263 207.972 C 285.415 212.343,284.773 213.041,280.728 212.904 C 276.821 212.771,276.828 212.757,276.813 220.245 C 276.800 226.407,277.393 228.400,279.239 228.400 C 279.420 228.400,279.933 228.791,280.379 229.269 L 281.189 230.139 279.948 231.246 C 277.705 233.249,266.647 233.526,264.631 231.630 C 263.403 230.475,263.339 229.840,264.359 228.900 C 264.777 228.515,265.587 227.776,266.159 227.258 C 268.212 225.400,267.578 213.182,265.400 212.636 C 263.182 212.079,263.322 209.209,265.634 207.843 C 266.239 207.486,267.168 206.678,267.699 206.048 C 269.392 204.035,272.255 203.054,275.200 203.478 C 275.970 203.588,278.022 203.659,279.760 203.635 M307.842 204.243 C 308.688 204.597,309.655 205.187,309.991 205.555 C 310.326 205.923,310.998 206.398,311.485 206.612 C 313.279 207.398,316.362 210.795,316.673 212.326 C 317.642 217.105,316.846 225.922,315.322 227.279 C 313.423 228.970,312.208 230.215,311.290 231.411 L 310.381 232.597 304.090 232.716 C 294.784 232.891,294.071 232.756,291.651 230.375 C 290.548 229.289,289.476 228.400,289.269 228.400 C 287.284 228.400,285.896 220.080,286.849 213.907 C 287.481 209.817,287.847 209.021,289.443 208.260 C 290.913 207.559,291.444 207.182,293.080 205.676 C 295.305 203.628,304.285 202.757,307.842 204.243 M326.261 204.411 C 328.616 205.233,328.918 206.430,329.227 216.187 C 329.380 221.034,329.623 225.280,329.766 225.622 C 330.518 227.422,336.400 227.764,336.400 226.007 C 336.400 225.801,336.895 225.173,337.500 224.611 L 338.600 223.590 338.600 216.879 L 338.600 210.168 337.345 208.942 C 333.680 205.360,337.092 203.048,344.118 204.350 C 348.450 205.153,348.569 205.479,348.660 216.809 C 348.740 226.877,348.871 227.654,350.770 229.373 L 351.622 230.144 349.660 231.277 C 346.114 233.324,339.901 233.511,338.712 231.607 C 338.255 230.876,338.216 230.876,337.152 231.634 C 334.436 233.568,324.724 233.532,323.255 231.583 C 322.895 231.104,322.111 230.131,321.514 229.420 C 319.761 227.332,319.551 226.236,319.514 219.006 C 319.475 211.470,318.962 208.269,317.645 207.347 C 314.764 205.329,321.909 202.894,326.261 204.411 M29.900 207.031 C 29.196 207.741,29.574 210.400,30.379 210.400 C 31.049 210.400,31.108 210.245,30.802 209.300 C 30.607 208.695,30.391 207.869,30.323 207.464 C 30.255 207.059,30.065 206.864,29.900 207.031 M299.880 208.786 C 297.221 209.301,296.568 211.890,296.897 220.626 C 297.120 226.572,297.466 227.600,299.240 227.600 C 299.907 227.600,300.778 227.774,301.177 227.988 C 301.700 228.268,302.354 228.157,303.531 227.588 C 304.428 227.154,305.419 226.800,305.734 226.800 C 307.539 226.800,307.659 211.964,305.868 210.224 C 305.203 209.578,302.581 208.391,301.940 208.446 C 301.643 208.471,300.716 208.624,299.880 208.786 M365.254 212.822 C 364.042 213.969,364.055 225.712,365.270 226.927 C 366.066 227.723,370.605 227.962,371.874 227.274 C 372.354 227.013,373.100 226.800,373.531 226.800 C 374.552 226.800,374.749 226.205,375.058 222.182 C 375.496 216.488,374.807 214.316,372.223 213.245 C 368.932 211.881,366.410 211.728,365.254 212.822 M32.000 221.594 C 30.790 221.707,29.800 221.980,29.800 222.200 C 29.800 222.749,34.012 222.948,34.537 222.423 C 35.269 221.691,34.309 221.377,32.000 221.594 " stroke="none" fill="#fbfbfb" fill-rule="evenodd"></path><path id="path1" d="M29.713 158.282 C 29.343 159.247,29.338 167.180,29.708 168.500 C 30.239 170.401,31.592 169.980,31.636 167.900 C 31.777 161.137,30.695 155.723,29.713 158.282 M33.859 180.674 C 33.301 181.232,33.644 182.882,34.500 183.757 C 35.593 184.874,36.686 186.977,37.017 188.600 C 37.363 190.295,38.054 191.600,38.606 191.600 C 39.239 191.600,40.400 192.922,40.400 193.643 C 40.400 193.961,40.790 194.556,41.267 194.964 C 42.642 196.142,43.294 194.929,42.964 191.810 C 42.506 187.472,42.273 186.791,41.009 186.073 C 39.186 185.037,38.770 184.524,38.523 183.004 C 38.368 182.050,38.081 181.600,37.628 181.600 C 37.260 181.600,36.789 181.443,36.580 181.252 C 36.045 180.761,34.170 180.363,33.859 180.674 M21.888 189.186 C 21.640 190.134,21.953 191.600,22.404 191.600 C 23.027 191.600,23.152 190.399,22.633 189.399 C 22.132 188.432,22.088 188.420,21.888 189.186 M24.206 193.180 C 24.047 193.683,24.250 194.250,24.780 194.780 C 25.288 195.288,25.600 196.122,25.600 196.973 C 25.600 198.046,25.797 198.408,26.500 198.630 C 27.700 199.009,28.800 200.322,28.800 201.375 C 28.800 201.915,29.277 202.506,30.100 202.985 C 31.600 203.860,32.800 205.110,32.800 205.799 C 32.800 207.619,38.072 208.462,38.622 206.731 C 38.831 206.072,38.651 205.681,37.878 205.119 C 37.317 204.710,36.737 203.825,36.590 203.152 C 36.284 201.763,31.220 196.478,28.472 194.681 C 27.531 194.066,26.660 193.301,26.537 192.981 C 26.204 192.111,24.499 192.256,24.206 193.180 M68.700 193.103 C 67.493 193.852,67.338 194.378,68.100 195.139 C 68.469 195.508,68.665 199.108,68.849 208.919 C 68.986 216.224,69.230 222.687,69.392 223.281 C 69.759 224.629,74.627 229.948,75.991 230.491 C 77.926 231.261,82.100 231.492,83.963 230.931 C 84.983 230.624,87.650 230.400,90.287 230.400 C 93.342 230.400,94.762 230.263,94.590 229.984 C 94.422 229.712,92.994 229.660,90.467 229.834 C 87.433 230.042,86.040 229.951,84.000 229.412 C 80.308 228.436,79.683 228.058,78.922 226.332 C 78.550 225.489,78.105 224.800,77.933 224.800 C 75.393 224.800,74.508 198.273,76.923 194.506 C 77.998 192.829,71.054 191.644,68.700 193.103 M121.400 192.583 C 121.180 192.649,120.276 192.920,119.392 193.185 C 118.305 193.511,117.494 194.110,116.888 195.034 C 116.396 195.785,115.749 196.400,115.450 196.400 C 114.393 196.400,112.890 197.993,112.628 199.393 C 112.483 200.167,112.225 200.800,112.056 200.800 C 111.607 200.800,109.881 203.939,109.306 205.800 C 108.043 209.892,108.917 218.286,110.819 220.328 C 111.248 220.789,111.600 221.444,111.600 221.783 C 111.600 222.122,111.739 222.400,111.909 222.400 C 112.079 222.400,112.572 223.075,113.004 223.900 C 113.853 225.522,115.060 226.795,115.761 226.809 C 116.003 226.814,116.650 227.170,117.200 227.600 C 117.750 228.030,118.683 228.386,119.273 228.391 C 120.032 228.397,120.428 228.664,120.627 229.300 C 121.069 230.715,121.430 230.786,128.029 230.761 C 131.455 230.748,134.921 230.861,135.731 231.013 C 136.541 231.165,138.333 231.077,139.712 230.817 L 142.219 230.344 143.313 228.072 L 144.407 225.800 143.559 225.100 C 142.323 224.079,141.772 224.224,140.520 225.900 C 138.926 228.035,138.604 228.220,135.219 228.947 C 130.854 229.885,123.938 229.435,122.831 228.142 C 121.279 226.327,119.551 223.400,118.968 221.600 C 118.577 220.390,117.884 218.889,117.428 218.265 C 116.170 216.541,116.209 206.753,117.481 204.967 C 117.949 204.310,118.462 203.079,118.621 202.230 C 119.317 198.516,120.844 195.688,122.200 195.599 C 122.420 195.585,123.029 195.216,123.553 194.780 L 124.506 193.986 123.592 193.193 C 122.719 192.436,122.290 192.316,121.400 192.583 M137.029 193.029 C 136.107 193.950,136.211 194.121,138.300 195.117 C 139.395 195.639,140.574 196.597,141.082 197.379 C 141.743 198.394,142.169 198.681,142.782 198.521 C 143.922 198.223,143.988 194.075,142.869 193.062 C 141.883 192.170,137.910 192.147,137.029 193.029 M169.018 193.295 C 168.286 194.341,169.210 195.342,171.295 195.759 C 172.128 195.926,172.475 196.276,172.643 197.117 C 173.295 200.375,175.078 199.069,174.610 195.677 C 174.355 193.829,174.318 193.789,172.241 193.100 C 169.620 192.231,169.770 192.222,169.018 193.295 M188.400 192.684 C 186.917 193.229,186.365 194.086,186.931 194.965 C 188.196 196.929,188.342 199.290,188.058 213.200 C 187.750 228.256,187.861 227.598,185.356 229.187 L 183.607 230.296 185.103 230.544 C 187.021 230.861,196.718 230.865,197.896 230.549 C 198.913 230.276,198.724 229.600,197.631 229.600 C 197.234 229.600,196.435 229.125,195.855 228.545 L 194.800 227.491 194.800 212.326 C 194.800 198.221,194.853 197.051,195.564 195.581 L 196.327 194.001 195.310 193.200 C 194.305 192.410,190.016 192.090,188.400 192.684 M248.986 192.802 C 247.048 193.537,247.081 194.249,249.094 195.144 C 251.465 196.199,252.400 196.917,252.400 197.682 C 252.400 198.321,253.624 199.600,254.235 199.600 C 255.547 199.600,255.864 194.607,254.630 193.373 C 254.062 192.805,250.048 192.398,248.986 192.802 M157.000 193.653 C 156.340 194.050,155.329 194.643,154.754 194.970 C 152.433 196.289,151.471 204.161,153.259 207.198 C 154.524 209.347,158.659 212.400,160.302 212.400 C 160.515 212.400,161.317 212.827,162.086 213.349 C 162.855 213.870,164.455 214.606,165.642 214.984 C 171.881 216.969,174.049 219.629,173.136 224.179 C 172.764 226.030,172.794 226.451,173.335 226.992 C 174.176 227.833,175.600 226.537,175.600 224.931 C 175.600 224.344,176.068 222.694,176.639 221.265 C 177.654 218.729,177.663 218.620,177.039 216.688 C 176.688 215.599,176.400 214.459,176.400 214.154 C 176.400 213.849,176.253 213.600,176.074 213.600 C 175.894 213.600,175.352 212.896,174.869 212.037 C 173.872 210.264,171.933 208.963,169.712 208.579 C 168.880 208.435,167.199 207.734,165.975 207.020 C 164.751 206.307,162.861 205.389,161.775 204.980 C 157.397 203.332,153.842 195.673,157.271 195.276 C 158.685 195.113,159.275 194.389,158.667 193.564 C 158.244 192.989,158.088 192.998,157.000 193.653 M229.825 193.274 C 229.398 193.522,228.462 194.311,227.745 195.029 C 227.027 195.746,226.080 196.448,225.640 196.587 C 225.201 196.727,224.743 197.147,224.624 197.520 C 224.504 197.894,223.595 199.070,222.603 200.134 C 221.611 201.197,220.799 202.457,220.797 202.934 C 220.796 203.410,220.442 205.268,220.012 207.062 C 218.720 212.453,220.044 221.096,222.576 223.797 C 223.469 224.749,224.543 225.969,224.962 226.506 C 225.381 227.044,226.320 227.700,227.050 227.963 C 227.779 228.227,228.704 228.860,229.105 229.371 C 230.184 230.741,233.293 231.300,236.908 230.773 C 238.626 230.523,241.927 230.461,245.041 230.621 C 254.757 231.120,255.561 230.498,256.051 222.107 L 256.343 217.092 257.808 215.592 C 259.661 213.694,259.355 213.479,254.507 213.267 C 247.379 212.955,244.189 213.693,246.969 215.012 C 250.457 216.667,250.531 227.273,247.067 229.072 C 245.554 229.857,238.138 230.006,236.698 229.281 C 236.204 229.032,235.177 228.677,234.415 228.493 C 233.330 228.230,232.782 227.729,231.879 226.179 C 231.246 225.090,230.297 223.743,229.770 223.185 C 226.876 220.115,226.636 202.051,229.468 200.466 C 229.823 200.267,230.593 199.226,231.180 198.152 C 232.018 196.618,232.694 195.981,234.338 195.175 C 236.345 194.191,236.399 194.123,235.683 193.475 C 234.812 192.687,231.059 192.558,229.825 193.274 M98.460 193.944 C 98.079 194.193,98.373 194.381,99.460 194.584 C 100.307 194.742,101.229 195.061,101.510 195.293 C 102.113 195.791,102.277 195.671,102.462 194.600 C 102.614 193.716,99.573 193.218,98.460 193.944 M13.849 197.415 C 12.965 199.721,13.669 202.107,15.400 202.671 C 16.445 203.012,16.616 203.277,16.723 204.722 C 16.818 206.012,17.189 206.740,18.388 207.988 C 19.237 208.871,19.992 209.747,20.066 209.935 C 20.140 210.123,21.145 210.951,22.300 211.776 C 23.455 212.600,24.400 213.436,24.400 213.634 C 24.400 214.744,26.222 217.965,26.962 218.164 C 29.103 218.739,30.291 218.444,30.524 217.281 C 30.647 216.665,31.212 215.697,31.780 215.129 L 32.813 214.097 31.906 213.854 C 31.408 213.720,30.657 213.608,30.238 213.605 C 29.114 213.597,26.933 211.785,26.640 210.616 C 26.499 210.057,26.133 209.600,25.825 209.600 C 24.764 209.600,22.777 208.198,22.541 207.284 C 22.403 206.747,21.642 206.030,20.706 205.552 C 19.749 205.064,18.939 204.291,18.688 203.629 C 18.424 202.928,17.670 202.242,16.635 201.761 C 15.133 201.062,14.978 200.842,14.728 199.061 C 14.420 196.869,14.210 196.476,13.849 197.415 M356.912 205.609 C 355.807 206.053,355.443 207.417,355.771 209.891 C 356.660 216.591,357.153 240.990,356.452 243.600 C 356.295 244.184,355.650 244.849,354.900 245.200 C 352.540 246.304,354.107 246.792,360.000 246.789 C 363.952 246.787,364.896 246.439,363.831 245.374 C 362.638 244.180,362.400 242.912,362.400 237.734 L 362.400 232.720 363.734 231.386 L 365.068 230.052 363.908 228.893 C 362.692 227.676,362.342 226.324,361.606 220.000 C 360.913 214.043,361.011 213.578,363.525 210.899 L 364.449 209.914 363.425 208.367 C 361.811 205.927,359.041 204.754,356.912 205.609 M281.000 206.117 C 280.340 206.330,279.516 206.751,279.169 207.052 C 278.401 207.718,277.429 207.751,276.305 207.149 C 274.723 206.303,271.211 206.686,269.422 207.900 C 267.208 209.402,266.140 210.400,266.747 210.400 C 268.240 210.400,268.855 213.771,268.725 221.250 L 268.600 228.471 267.532 229.388 L 266.465 230.306 267.932 230.549 C 269.817 230.860,273.783 230.860,275.668 230.549 L 277.135 230.306 276.210 229.453 C 274.875 228.222,274.400 225.581,274.400 219.385 C 274.400 211.539,275.927 209.690,281.193 211.156 C 283.325 211.750,283.940 209.878,282.634 206.765 C 282.243 205.832,282.082 205.769,281.000 206.117 M370.200 206.478 C 371.318 207.112,371.587 207.611,371.594 209.061 C 371.599 210.091,371.813 210.396,372.765 210.728 C 376.263 211.947,377.429 215.456,376.976 223.402 C 376.645 229.226,377.145 229.948,379.476 227.009 C 380.178 226.124,381.115 225.029,381.557 224.575 C 383.731 222.348,383.782 214.298,381.638 211.920 C 381.182 211.414,380.265 210.344,379.600 209.542 C 378.935 208.741,377.909 207.964,377.320 207.816 C 376.731 207.668,375.760 207.199,375.163 206.773 C 374.380 206.216,373.423 206.003,371.738 206.012 C 369.788 206.022,369.533 206.100,370.200 206.478 M341.429 207.567 C 340.852 208.205,340.745 209.444,340.678 216.256 C 340.622 221.950,340.451 224.460,340.076 225.119 C 339.651 225.864,339.645 226.456,340.044 228.242 C 340.665 231.014,341.310 231.412,344.154 230.775 L 346.270 230.302 346.342 220.051 L 346.414 209.800 344.258 208.312 C 342.173 206.872,342.081 206.848,341.429 207.567 M322.747 208.362 C 321.145 209.660,321.585 225.032,323.287 227.200 C 323.719 227.750,324.313 228.774,324.606 229.476 C 325.037 230.508,325.432 230.799,326.670 230.998 C 327.511 231.133,328.534 231.312,328.942 231.396 C 329.946 231.601,334.918 230.349,334.518 229.992 C 334.343 229.836,333.060 229.376,331.666 228.969 C 327.647 227.794,327.600 227.667,327.600 218.000 C 327.600 211.088,327.501 209.756,326.914 208.762 C 326.085 207.358,324.209 207.178,322.747 208.362 M292.732 209.109 C 289.354 211.338,288.617 213.117,288.636 219.000 C 288.652 223.826,289.352 226.235,290.893 226.773 C 291.535 226.996,292.594 227.752,293.248 228.451 C 294.938 230.261,295.355 229.624,295.026 225.735 C 294.880 224.011,294.666 221.430,294.552 220.000 C 294.434 218.519,294.605 215.779,294.951 213.635 C 295.759 208.624,295.199 207.482,292.732 209.109 M308.798 209.003 C 308.449 209.422,308.384 210.242,308.582 211.703 C 308.739 212.856,308.851 217.155,308.831 221.256 C 308.802 227.423,308.896 228.751,309.376 228.935 C 310.272 229.279,314.309 225.022,314.795 223.220 C 316.058 218.528,315.558 214.076,313.551 212.153 C 312.918 211.547,312.400 210.827,312.400 210.554 C 312.400 209.178,309.639 207.989,308.798 209.003 M153.210 223.177 C 152.529 224.821,152.583 226.737,153.360 228.514 C 154.436 230.972,155.525 231.173,164.900 230.634 C 171.302 230.266,172.244 229.600,166.362 229.600 C 159.244 229.600,157.360 228.757,155.486 224.734 C 154.046 221.644,153.889 221.537,153.210 223.177 M97.764 225.750 C 97.425 226.633,97.876 227.084,98.487 226.473 C 98.847 226.113,98.849 225.889,98.493 225.533 C 98.137 225.177,97.964 225.229,97.764 225.750 M372.634 229.463 C 370.884 230.411,372.906 231.288,375.300 230.620 C 376.511 230.282,376.641 230.001,375.920 229.280 C 375.272 228.632,374.043 228.701,372.634 229.463 M305.200 229.664 L 304.200 230.078 305.105 230.428 C 306.079 230.805,308.400 230.498,308.400 229.993 C 308.400 229.215,306.706 229.041,305.200 229.664 M296.200 230.000 C 296.050 230.243,296.628 230.398,297.676 230.394 C 298.937 230.389,299.239 230.284,298.800 230.000 C 298.015 229.493,296.514 229.493,296.200 230.000 " stroke="none" fill="#554e4e" fill-rule="evenodd"></path><path id="path2" d="M29.301 157.186 C 29.031 157.619,28.638 158.654,28.428 159.486 C 28.217 160.319,27.839 161.720,27.586 162.600 C 26.690 165.722,26.410 170.004,27.002 171.559 C 27.303 172.351,27.865 174.350,28.249 176.000 C 28.634 177.650,29.513 179.900,30.203 181.000 C 30.893 182.100,31.865 184.021,32.363 185.268 C 32.860 186.516,33.638 187.866,34.092 188.268 C 34.546 188.671,35.513 189.900,36.243 191.000 C 36.972 192.100,38.629 194.156,39.927 195.569 L 42.285 198.139 43.296 196.369 C 45.327 192.812,44.479 185.824,41.740 183.550 C 41.082 183.004,40.024 180.756,39.221 178.200 C 38.945 177.320,38.316 175.970,37.823 175.200 C 36.618 173.319,35.440 169.370,34.568 164.296 C 34.426 163.468,34.150 162.693,33.955 162.572 C 33.760 162.451,33.600 161.935,33.600 161.425 C 33.600 158.271,30.520 155.234,29.301 157.186 M31.130 159.900 C 32.029 164.657,31.864 169.600,30.808 169.600 C 29.699 169.600,29.395 168.187,29.426 163.182 C 29.463 157.175,30.308 155.547,31.130 159.900 M21.000 177.199 C 20.560 177.388,19.718 177.646,19.128 177.772 C 16.624 178.307,16.351 185.396,18.670 189.658 C 19.251 190.726,19.870 191.600,20.045 191.600 C 20.221 191.600,20.481 192.223,20.624 192.985 C 20.784 193.838,21.382 194.797,22.183 195.485 C 22.898 196.098,23.779 197.176,24.142 197.881 C 24.781 199.123,26.694 201.381,29.626 204.354 C 30.411 205.149,31.465 206.610,31.970 207.600 C 32.475 208.590,33.090 209.527,33.338 209.682 C 33.869 210.014,32.346 211.600,31.497 211.600 C 31.202 211.600,30.773 211.787,30.544 212.016 C 30.128 212.432,27.600 210.273,27.600 209.504 C 27.600 209.314,27.007 208.911,26.282 208.608 C 25.165 208.142,24.557 207.555,22.800 205.244 C 22.690 205.100,22.105 204.666,21.499 204.281 C 20.894 203.896,19.937 202.883,19.372 202.030 C 18.808 201.177,18.010 200.391,17.599 200.284 C 17.165 200.170,16.307 198.973,15.557 197.433 C 14.193 194.635,13.985 194.575,13.255 196.760 C 12.255 199.750,13.241 203.776,15.591 206.298 C 16.030 206.770,16.770 207.885,17.235 208.778 C 17.700 209.670,18.219 210.400,18.389 210.400 C 19.016 210.400,23.530 215.244,24.181 216.616 C 25.178 218.717,24.710 220.225,22.752 221.224 C 20.702 222.270,21.091 222.800,23.911 222.800 C 25.771 222.800,26.320 222.636,26.987 221.880 C 27.434 221.374,28.700 220.639,29.800 220.247 C 32.733 219.200,34.379 218.296,34.601 217.608 C 34.796 217.007,36.920 215.600,37.632 215.600 C 38.169 215.600,39.598 214.084,39.613 213.500 C 39.631 212.793,40.419 211.858,41.700 211.024 C 42.473 210.521,42.800 209.971,42.800 209.173 C 42.800 208.548,43.012 207.573,43.270 207.006 C 43.687 206.092,43.631 205.897,42.779 205.301 C 42.251 204.930,41.095 203.946,40.211 203.114 C 39.328 202.281,38.423 201.599,38.202 201.598 C 37.981 201.597,37.170 200.846,36.400 199.929 C 35.630 199.012,34.360 197.618,33.577 196.831 C 32.794 196.044,31.810 194.815,31.390 194.100 C 30.971 193.385,30.485 192.800,30.310 192.800 C 29.776 192.800,27.845 190.681,27.028 189.200 C 26.604 188.430,25.969 187.530,25.617 187.200 C 24.501 186.155,22.400 179.503,22.400 177.017 C 22.400 176.726,21.966 176.783,21.000 177.199 M36.580 181.252 C 36.789 181.443,37.260 181.600,37.628 181.600 C 38.081 181.600,38.368 182.050,38.523 183.004 C 38.770 184.524,39.186 185.037,41.009 186.073 C 42.273 186.791,42.506 187.472,42.964 191.810 C 43.294 194.929,42.642 196.142,41.267 194.964 C 40.790 194.556,40.400 193.961,40.400 193.643 C 40.400 192.922,39.239 191.600,38.606 191.600 C 38.054 191.600,37.363 190.295,37.017 188.600 C 36.686 186.977,35.593 184.874,34.500 183.757 C 32.431 181.642,34.408 179.261,36.580 181.252 M22.940 191.012 C 22.400 192.420,21.466 190.799,21.888 189.186 C 22.088 188.420,22.132 188.432,22.633 189.399 C 22.926 189.963,23.064 190.689,22.940 191.012 M26.537 192.981 C 26.660 193.301,27.531 194.066,28.472 194.681 C 31.220 196.478,36.284 201.763,36.590 203.152 C 36.737 203.825,37.317 204.710,37.878 205.119 C 38.651 205.681,38.831 206.072,38.622 206.731 C 38.072 208.462,32.800 207.619,32.800 205.799 C 32.800 205.110,31.600 203.860,30.100 202.985 C 29.277 202.506,28.800 201.915,28.800 201.375 C 28.800 200.322,27.700 199.009,26.500 198.630 C 25.797 198.408,25.600 198.046,25.600 196.973 C 25.600 196.122,25.288 195.288,24.780 194.780 C 23.735 193.735,24.074 192.400,25.384 192.400 C 25.896 192.400,26.415 192.662,26.537 192.981 M14.728 199.061 C 14.978 200.842,15.133 201.062,16.635 201.761 C 17.670 202.242,18.424 202.928,18.688 203.629 C 18.939 204.291,19.749 205.064,20.706 205.552 C 21.642 206.030,22.403 206.747,22.541 207.284 C 22.777 208.198,24.764 209.600,25.825 209.600 C 26.133 209.600,26.499 210.057,26.640 210.616 C 26.933 211.785,29.114 213.597,30.238 213.605 C 30.657 213.608,31.408 213.720,31.906 213.854 L 32.813 214.097 31.780 215.129 C 31.212 215.697,30.647 216.665,30.524 217.281 C 30.291 218.444,29.103 218.739,26.962 218.164 C 26.222 217.965,24.400 214.744,24.400 213.634 C 24.400 213.436,23.455 212.600,22.300 211.776 C 21.145 210.951,20.140 210.123,20.066 209.935 C 19.992 209.747,19.237 208.871,18.388 207.988 C 17.189 206.740,16.818 206.012,16.723 204.722 C 16.616 203.277,16.445 203.012,15.400 202.671 C 13.860 202.169,13.614 201.765,13.606 199.733 C 13.594 196.419,14.297 195.998,14.728 199.061 M45.670 217.690 C 45.033 218.327,45.065 220.400,45.712 220.400 C 46.494 220.400,47.243 218.134,46.630 217.625 C 46.295 217.347,45.993 217.367,45.670 217.690 M40.100 221.103 C 38.158 221.860,37.954 222.468,39.419 223.136 C 41.593 224.127,44.951 223.065,44.723 221.459 C 44.563 220.338,42.474 220.177,40.100 221.103 M31.400 225.973 C 30.780 226.218,31.005 226.330,32.400 226.473 C 34.611 226.698,35.919 226.448,35.134 225.951 C 34.477 225.534,32.478 225.546,31.400 225.973 M32.400 233.497 L 31.000 234.128 32.400 234.449 C 33.170 234.625,34.417 234.660,35.172 234.527 L 36.544 234.284 35.628 233.542 C 34.547 232.667,34.249 232.663,32.400 233.497 " stroke="none" fill="#b06a68" fill-rule="evenodd"></path><path id="path3" d="M30.833 156.504 C 30.925 156.562,31.405 156.950,31.900 157.366 C 32.395 157.783,32.800 158.019,32.800 157.891 C 32.800 157.487,31.563 156.400,31.105 156.400 C 30.864 156.400,30.742 156.447,30.833 156.504 M385.319 189.558 C 384.929 190.183,384.983 190.441,385.623 191.020 C 386.379 191.705,386.400 191.685,386.400 190.262 C 386.400 188.643,386.037 188.408,385.319 189.558 M131.400 190.390 C 132.940 190.535,134.371 190.507,134.580 190.327 C 134.789 190.147,133.529 190.028,131.780 190.063 L 128.600 190.126 131.400 190.390 M163.600 190.156 C 163.600 190.477,166.456 190.632,166.648 190.323 C 166.758 190.145,166.117 190.000,165.224 190.000 C 164.331 190.000,163.600 190.070,163.600 190.156 M135.900 191.232 C 134.351 192.134,134.989 194.284,137.090 195.241 C 138.130 195.715,139.706 196.892,140.592 197.858 L 142.204 199.613 143.902 198.946 C 145.432 198.345,146.171 197.600,145.238 197.600 C 145.038 197.600,144.754 196.720,144.606 195.645 C 144.138 192.241,138.807 189.539,135.900 191.232 M168.229 191.829 C 167.081 192.976,167.456 194.294,169.300 195.588 C 171.299 196.991,171.301 196.992,172.812 198.800 L 173.982 200.200 174.806 199.200 C 175.980 197.778,175.231 192.830,173.836 192.786 C 173.596 192.779,172.680 192.425,171.800 192.000 C 169.838 191.052,169.043 191.014,168.229 191.829 M68.407 192.223 C 66.603 193.211,66.415 193.830,67.352 195.705 C 68.150 197.299,68.212 198.184,68.410 210.600 C 68.646 225.454,68.449 224.483,71.985 228.221 C 75.501 231.939,76.934 232.195,89.494 231.353 C 95.310 230.964,96.235 230.677,95.751 229.416 C 95.501 228.764,95.096 228.725,91.299 228.979 C 83.890 229.475,80.770 228.485,78.995 225.073 C 78.558 224.233,77.866 223.185,77.458 222.744 C 76.782 222.014,76.696 220.913,76.499 210.447 C 76.262 197.851,76.366 196.585,77.767 195.073 C 79.930 192.740,71.917 190.300,68.407 192.223 M119.611 192.316 C 118.627 192.655,117.277 193.490,116.611 194.173 C 115.945 194.857,114.725 195.916,113.900 196.528 C 113.075 197.140,112.400 197.883,112.400 198.180 C 112.400 198.477,111.815 199.598,111.100 200.671 C 108.584 204.449,108.600 204.377,108.600 211.761 L 108.600 218.600 110.995 222.346 C 113.290 225.936,115.315 227.889,117.429 228.550 C 117.886 228.692,118.623 229.148,119.067 229.562 C 121.089 231.445,121.806 231.563,131.313 231.575 C 140.811 231.587,142.908 231.262,143.488 229.687 C 143.628 229.309,144.160 228.329,144.671 227.508 C 145.182 226.687,145.600 225.472,145.600 224.808 C 145.600 224.144,145.759 223.600,145.953 223.600 C 146.445 223.600,146.803 222.049,146.373 221.783 C 146.180 221.664,145.707 221.934,145.322 222.383 C 144.937 222.832,144.167 223.201,143.611 223.203 C 142.360 223.206,140.824 224.194,139.111 226.099 C 136.974 228.475,131.801 229.452,126.230 228.532 C 123.345 228.055,120.544 224.534,118.969 219.400 C 118.564 218.080,118.064 216.770,117.858 216.489 C 117.405 215.870,117.484 208.177,117.953 207.256 C 118.137 206.895,118.407 205.970,118.552 205.200 C 119.592 199.704,120.737 197.394,123.215 195.791 C 125.919 194.041,125.967 193.931,124.618 192.582 C 123.495 191.459,122.289 191.395,119.611 192.316 M187.000 192.280 C 184.991 193.364,184.739 194.012,185.824 195.301 C 186.910 196.592,187.354 198.468,187.315 201.600 C 186.979 228.714,187.181 227.072,183.961 228.789 C 182.631 229.497,181.619 230.152,181.711 230.245 C 183.159 231.692,196.824 232.091,198.730 230.741 L 199.660 230.083 198.601 229.341 C 198.019 228.934,197.102 228.240,196.565 227.800 L 195.588 227.000 195.574 212.200 C 195.560 198.093,195.598 197.322,196.377 195.725 C 197.292 193.850,197.170 193.134,195.780 192.224 C 194.451 191.353,188.649 191.390,187.000 192.280 M232.200 192.089 C 231.320 192.302,230.240 192.545,229.800 192.629 C 228.062 192.960,221.663 199.194,220.797 201.400 C 220.625 201.840,220.266 203.010,220.001 204.000 C 219.736 204.990,219.184 206.790,218.775 208.000 C 217.240 212.540,219.468 221.369,223.213 225.583 C 224.590 227.132,225.954 228.400,226.244 228.400 C 226.535 228.400,227.363 228.902,228.086 229.516 C 230.585 231.638,234.957 232.267,240.407 231.289 C 241.393 231.111,242.740 231.088,243.400 231.236 C 245.630 231.737,250.854 231.607,252.946 230.999 C 255.634 230.217,256.628 227.944,256.969 221.801 C 257.147 218.602,257.353 217.602,258.001 216.801 C 260.974 213.127,260.224 212.595,252.156 212.648 C 246.496 212.685,245.861 212.761,245.133 213.489 L 244.332 214.290 246.356 215.535 C 248.802 217.040,248.997 217.640,248.667 222.661 C 248.279 228.569,247.821 228.975,241.600 228.926 C 236.164 228.884,233.322 227.876,232.648 225.752 C 232.507 225.306,232.055 224.580,231.644 224.139 C 226.896 219.043,226.652 201.732,231.300 199.667 C 231.465 199.593,231.601 199.323,231.602 199.067 C 231.606 198.193,233.395 196.451,235.400 195.370 C 236.500 194.776,237.460 194.241,237.532 194.180 C 238.205 193.615,235.166 191.414,234.040 191.651 C 233.908 191.678,233.080 191.876,232.200 192.089 M247.800 192.064 C 245.398 193.385,245.512 194.021,248.424 195.561 C 250.249 196.527,251.549 197.559,252.375 198.700 C 255.100 202.466,257.809 197.364,255.253 193.279 C 254.569 192.186,249.177 191.307,247.800 192.064 M75.920 193.208 C 76.786 193.736,77.131 194.182,76.923 194.506 C 74.508 198.273,75.393 224.800,77.933 224.800 C 78.105 224.800,78.550 225.489,78.922 226.332 C 79.683 228.058,80.308 228.436,84.000 229.412 C 86.040 229.951,87.433 230.042,90.467 229.834 C 92.994 229.660,94.422 229.712,94.590 229.984 C 94.762 230.263,93.342 230.400,90.287 230.400 C 87.650 230.400,84.983 230.624,83.963 230.931 C 82.100 231.492,77.926 231.261,75.991 230.491 C 74.627 229.948,69.759 224.629,69.392 223.281 C 69.230 222.687,68.986 216.224,68.849 208.919 C 68.665 199.108,68.469 195.508,68.100 195.139 C 65.936 192.978,72.773 191.289,75.920 193.208 M97.293 193.301 L 96.446 194.203 97.357 195.080 C 97.858 195.562,98.793 196.190,99.434 196.476 C 101.076 197.206,101.895 198.040,102.107 199.200 C 102.234 199.889,102.308 199.700,102.346 198.594 C 102.375 197.711,102.749 196.337,103.176 195.541 L 103.951 194.094 103.050 193.247 C 101.746 192.022,98.465 192.053,97.293 193.301 M123.592 193.193 L 124.506 193.986 123.553 194.780 C 123.029 195.216,122.420 195.585,122.200 195.599 C 120.844 195.688,119.317 198.516,118.621 202.230 C 118.462 203.079,117.949 204.310,117.481 204.967 C 116.209 206.753,116.170 216.541,117.428 218.265 C 117.884 218.889,118.577 220.390,118.968 221.600 C 119.551 223.400,121.279 226.327,122.831 228.142 C 123.938 229.435,130.854 229.885,135.219 228.947 C 138.604 228.220,138.926 228.035,140.520 225.900 C 141.772 224.224,142.323 224.079,143.559 225.100 L 144.407 225.800 143.313 228.072 L 142.219 230.344 139.712 230.817 C 138.333 231.077,136.541 231.165,135.731 231.013 C 134.921 230.861,131.455 230.748,128.029 230.761 C 121.430 230.786,121.069 230.715,120.627 229.300 C 120.428 228.664,120.032 228.397,119.273 228.391 C 118.683 228.386,117.750 228.030,117.200 227.600 C 116.650 227.170,116.003 226.814,115.761 226.809 C 115.060 226.795,113.853 225.522,113.004 223.900 C 112.572 223.075,112.079 222.400,111.909 222.400 C 111.739 222.400,111.600 222.122,111.600 221.783 C 111.600 221.444,111.248 220.789,110.819 220.328 C 108.917 218.286,108.043 209.892,109.306 205.800 C 109.881 203.939,111.607 200.800,112.056 200.800 C 112.225 200.800,112.483 200.167,112.628 199.393 C 112.890 197.993,114.393 196.400,115.450 196.400 C 115.749 196.400,116.396 195.785,116.888 195.034 C 117.494 194.110,118.305 193.511,119.392 193.185 C 120.276 192.920,121.180 192.649,121.400 192.583 C 122.290 192.316,122.719 192.436,123.592 193.193 M142.869 193.062 C 143.988 194.075,143.922 198.223,142.782 198.521 C 142.169 198.681,141.743 198.394,141.082 197.379 C 140.574 196.597,139.395 195.639,138.300 195.117 C 136.211 194.121,136.107 193.950,137.029 193.029 C 137.910 192.147,141.883 192.170,142.869 193.062 M155.400 193.335 C 149.301 196.767,150.670 208.887,157.508 211.997 C 158.549 212.470,159.760 213.063,160.200 213.315 C 162.496 214.629,164.696 215.576,165.476 215.587 C 165.958 215.594,166.450 215.757,166.568 215.948 C 166.686 216.140,167.282 216.397,167.892 216.520 C 170.805 217.108,172.600 220.156,172.600 224.516 C 172.600 229.142,175.664 229.582,176.563 225.086 C 176.700 224.400,177.146 223.470,177.554 223.019 C 179.479 220.892,178.874 216.864,175.918 212.141 C 174.396 209.708,173.728 209.209,170.400 208.020 C 168.427 207.314,167.213 206.746,165.600 205.774 C 164.830 205.310,163.600 204.812,162.866 204.668 C 160.890 204.280,159.394 203.037,158.023 200.641 C 156.451 197.892,156.466 197.754,158.571 195.766 C 161.509 192.991,159.182 191.207,155.400 193.335 M172.241 193.100 C 174.318 193.789,174.355 193.829,174.610 195.677 C 175.078 199.069,173.295 200.375,172.643 197.117 C 172.475 196.276,172.128 195.926,171.295 195.759 C 169.210 195.342,168.286 194.341,169.018 193.295 C 169.770 192.222,169.620 192.231,172.241 193.100 M195.310 193.200 L 196.327 194.001 195.564 195.581 C 194.853 197.051,194.800 198.221,194.800 212.326 L 194.800 227.491 195.855 228.545 C 196.435 229.125,197.234 229.600,197.631 229.600 C 198.724 229.600,198.913 230.276,197.896 230.549 C 196.718 230.865,187.021 230.861,185.103 230.544 L 183.607 230.296 185.356 229.187 C 187.861 227.598,187.750 228.256,188.058 213.200 C 188.342 199.290,188.196 196.929,186.931 194.965 C 185.502 192.746,192.783 191.213,195.310 193.200 M254.630 193.373 C 255.864 194.607,255.547 199.600,254.235 199.600 C 253.624 199.600,252.400 198.321,252.400 197.682 C 252.400 196.917,251.465 196.199,249.094 195.144 C 247.081 194.249,247.048 193.537,248.986 192.802 C 250.048 192.398,254.062 192.805,254.630 193.373 M158.738 194.675 C 158.520 194.938,157.860 195.208,157.271 195.276 C 153.842 195.673,157.397 203.332,161.775 204.980 C 162.861 205.389,164.751 206.307,165.975 207.020 C 167.199 207.734,168.880 208.435,169.712 208.579 C 171.933 208.963,173.872 210.264,174.869 212.037 C 175.352 212.896,175.894 213.600,176.074 213.600 C 176.253 213.600,176.400 213.849,176.400 214.154 C 176.400 214.459,176.688 215.599,177.039 216.688 C 177.663 218.620,177.654 218.729,176.639 221.265 C 176.068 222.694,175.600 224.344,175.600 224.931 C 175.600 226.537,174.176 227.833,173.335 226.992 C 172.794 226.451,172.764 226.030,173.136 224.179 C 174.049 219.629,171.881 216.969,165.642 214.984 C 164.455 214.606,162.855 213.870,162.086 213.349 C 161.317 212.827,160.515 212.400,160.302 212.400 C 159.455 212.400,155.945 210.369,154.905 209.278 C 151.497 205.698,151.403 196.875,154.754 194.970 C 155.329 194.643,156.340 194.050,157.000 193.653 C 158.335 192.849,159.624 193.608,158.738 194.675 M235.683 193.475 C 236.399 194.123,236.345 194.191,234.338 195.175 C 232.694 195.981,232.018 196.618,231.180 198.152 C 230.593 199.226,229.823 200.267,229.468 200.466 C 226.636 202.051,226.876 220.115,229.770 223.185 C 230.297 223.743,231.246 225.090,231.879 226.179 C 232.782 227.729,233.330 228.230,234.415 228.493 C 235.177 228.677,236.204 229.032,236.698 229.281 C 238.138 230.006,245.554 229.857,247.067 229.072 C 250.531 227.273,250.457 216.667,246.969 215.012 C 244.189 213.693,247.379 212.955,254.507 213.267 C 259.355 213.479,259.661 213.694,257.808 215.592 L 256.343 217.092 256.051 222.107 C 255.561 230.498,254.757 231.120,245.041 230.621 C 241.927 230.461,238.626 230.523,236.908 230.773 C 233.293 231.300,230.184 230.741,229.105 229.371 C 228.704 228.860,227.779 228.227,227.050 227.963 C 226.320 227.700,225.381 227.044,224.962 226.506 C 224.543 225.969,223.469 224.749,222.576 223.797 C 220.044 221.096,218.720 212.453,220.012 207.062 C 220.442 205.268,220.796 203.410,220.797 202.934 C 220.799 202.457,221.611 201.197,222.603 200.134 C 223.595 199.070,224.504 197.894,224.624 197.520 C 224.743 197.147,225.201 196.727,225.640 196.587 C 226.080 196.448,227.027 195.746,227.745 195.029 C 230.111 192.663,233.954 191.910,235.683 193.475 M102.462 194.600 C 102.277 195.671,102.113 195.791,101.510 195.293 C 101.229 195.061,100.307 194.742,99.460 194.584 C 97.396 194.198,98.367 193.555,100.800 193.696 C 102.353 193.786,102.581 193.910,102.462 194.600 M101.839 203.155 C 100.992 205.621,100.982 221.515,101.828 222.361 C 102.368 222.901,102.564 221.300,102.694 215.292 C 102.853 207.935,102.401 201.520,101.839 203.155 M357.177 204.801 C 354.233 205.632,353.493 207.978,355.059 211.513 C 357.043 215.993,356.548 243.911,354.470 244.704 C 350.972 246.039,352.565 247.156,358.443 247.491 C 361.541 247.668,362.645 247.573,364.143 247.001 L 366.000 246.291 364.953 245.246 C 362.200 242.497,362.036 234.554,364.671 231.635 C 365.818 230.365,369.138 230.029,371.361 230.958 C 374.411 232.232,376.624 231.402,379.960 227.733 C 386.566 220.466,384.801 210.417,376.177 206.193 C 373.385 204.826,367.600 205.009,367.600 206.465 C 367.600 206.949,368.420 208.532,368.810 208.800 C 368.970 208.910,369.528 209.314,370.050 209.698 C 370.573 210.082,371.974 211.072,373.165 211.898 C 375.994 213.861,376.545 215.293,376.488 220.526 C 376.429 225.881,375.526 228.341,373.600 228.390 C 373.270 228.398,372.460 228.702,371.800 229.065 C 370.024 230.041,366.095 229.819,364.862 228.672 C 363.183 227.111,362.902 226.004,362.613 219.800 L 362.334 213.800 363.653 212.100 C 364.378 211.165,365.113 210.400,365.286 210.400 C 365.764 210.400,365.665 209.598,364.961 207.753 C 364.110 205.525,360.057 203.988,357.177 204.801 M281.000 205.262 C 280.340 205.444,278.000 205.581,275.800 205.567 C 271.244 205.538,270.741 205.667,268.769 207.367 C 267.982 208.045,266.947 208.865,266.469 209.188 C 265.407 209.907,265.380 210.314,266.341 211.153 C 268.093 212.683,268.400 214.062,268.400 220.406 C 268.400 226.931,268.251 227.545,266.244 229.267 C 265.291 230.084,265.141 230.383,265.600 230.545 C 269.063 231.765,273.348 231.928,276.653 230.967 L 278.829 230.335 277.115 228.814 L 275.400 227.293 275.274 220.487 L 275.148 213.680 276.274 212.608 C 277.310 211.622,277.603 211.552,279.943 211.726 C 283.049 211.957,284.250 211.151,283.842 209.108 C 283.709 208.444,283.600 207.590,283.600 207.211 C 283.600 205.860,282.318 204.899,281.000 205.262 M296.989 205.710 C 295.328 206.640,296.460 207.050,300.700 207.055 C 308.389 207.063,308.100 206.585,308.165 219.400 C 308.206 227.325,308.149 227.492,304.902 229.030 L 302.600 230.121 304.238 230.818 C 312.284 234.241,319.782 219.084,313.882 211.325 C 311.382 208.037,310.811 207.600,309.017 207.600 C 307.881 207.600,307.600 207.446,307.600 206.824 C 307.600 206.397,307.397 205.921,307.148 205.768 C 306.499 205.367,297.692 205.317,296.989 205.710 M361.501 206.255 C 361.996 206.565,362.862 207.516,363.425 208.367 L 364.449 209.914 363.525 210.899 C 361.011 213.578,360.913 214.043,361.606 220.000 C 362.342 226.324,362.692 227.676,363.908 228.893 L 365.068 230.052 363.734 231.386 L 362.400 232.720 362.400 237.734 C 362.400 242.912,362.638 244.180,363.831 245.374 C 364.896 246.439,363.952 246.787,360.000 246.789 C 354.107 246.792,352.540 246.304,354.900 245.200 C 355.650 244.849,356.295 244.184,356.452 243.600 C 357.153 240.990,356.660 216.591,355.771 209.891 C 355.207 205.636,357.845 203.962,361.501 206.255 M283.310 209.031 C 283.618 210.594,282.652 211.563,281.193 211.156 C 275.927 209.690,274.400 211.539,274.400 219.385 C 274.400 225.581,274.875 228.222,276.210 229.453 L 277.135 230.306 275.668 230.549 C 273.783 230.860,269.817 230.860,267.932 230.549 L 266.465 230.306 267.532 229.388 L 268.600 228.471 268.725 221.250 C 268.855 213.771,268.240 210.400,266.747 210.400 C 266.140 210.400,267.208 209.402,269.422 207.900 C 271.211 206.686,274.723 206.303,276.305 207.149 C 277.429 207.751,278.401 207.718,279.169 207.052 C 281.404 205.113,282.658 205.713,283.310 209.031 M321.241 206.723 C 320.075 208.903,321.171 225.836,322.605 227.800 C 323.087 228.460,323.589 229.305,323.719 229.677 C 324.472 231.819,330.829 232.610,334.388 231.005 L 336.062 230.250 335.131 229.540 C 334.619 229.149,333.452 228.715,332.537 228.575 C 331.616 228.434,330.296 227.837,329.577 227.237 L 328.279 226.154 328.097 217.977 C 327.869 207.764,327.540 206.665,324.594 206.261 C 321.879 205.889,321.672 205.918,321.241 206.723 M338.660 206.397 C 339.654 206.799,339.842 207.959,340.245 216.146 C 340.489 221.112,340.148 223.810,339.130 224.980 C 338.626 225.560,338.737 227.874,339.338 229.313 C 340.403 231.860,342.000 232.263,345.860 230.958 L 347.920 230.262 347.364 228.431 C 346.962 227.106,346.807 224.140,346.804 217.700 C 346.799 206.860,346.282 205.958,340.113 206.025 C 338.396 206.044,338.021 206.140,338.660 206.397 M375.163 206.773 C 375.760 207.199,376.731 207.668,377.320 207.816 C 377.909 207.964,378.935 208.741,379.600 209.542 C 380.265 210.344,381.182 211.414,381.638 211.920 C 383.782 214.298,383.731 222.348,381.557 224.575 C 381.115 225.029,380.178 226.124,379.476 227.009 C 377.145 229.948,376.645 229.226,376.976 223.402 C 377.429 215.456,376.263 211.947,372.765 210.728 C 371.813 210.396,371.599 210.091,371.594 209.061 C 371.587 207.611,371.318 207.112,370.200 206.478 C 369.533 206.100,369.788 206.022,371.738 206.012 C 373.423 206.003,374.380 206.216,375.163 206.773 M346.342 220.051 L 346.270 230.302 344.154 230.775 C 341.310 231.412,340.665 231.014,340.044 228.242 C 339.645 226.456,339.651 225.864,340.076 225.119 C 340.451 224.460,340.622 221.950,340.678 216.256 C 340.776 206.330,340.921 206.008,344.258 208.312 L 346.414 209.800 346.342 220.051 M292.800 208.104 C 289.353 210.295,288.716 211.282,288.007 215.529 C 287.088 221.035,288.324 225.772,291.224 227.856 C 292.322 228.644,293.388 229.603,293.593 229.987 C 294.063 230.866,297.765 231.311,299.839 230.738 C 301.563 230.262,301.310 229.928,298.547 229.033 C 296.615 228.406,296.463 228.256,295.947 226.484 C 295.210 223.946,295.199 213.169,295.931 211.099 C 297.128 207.719,295.641 206.297,292.800 208.104 M326.914 208.762 C 327.501 209.756,327.600 211.088,327.600 218.000 C 327.600 227.667,327.647 227.794,331.666 228.969 C 333.060 229.376,334.343 229.836,334.518 229.992 C 334.918 230.349,329.946 231.601,328.942 231.396 C 328.534 231.312,327.511 231.133,326.670 230.998 C 325.432 230.799,325.037 230.508,324.606 229.476 C 324.313 228.774,323.719 227.750,323.287 227.200 C 321.585 225.032,321.145 209.660,322.747 208.362 C 324.209 207.178,326.085 207.358,326.914 208.762 M295.165 209.135 C 295.433 209.635,295.365 211.071,294.951 213.635 C 294.605 215.779,294.434 218.519,294.552 220.000 C 294.666 221.430,294.880 224.011,295.026 225.735 C 295.355 229.624,294.938 230.261,293.248 228.451 C 292.594 227.752,291.535 226.996,290.893 226.773 C 287.966 225.752,287.639 214.026,290.456 211.079 C 292.895 208.527,294.488 207.869,295.165 209.135 M311.346 209.229 C 311.926 209.685,312.400 210.281,312.400 210.554 C 312.400 210.827,312.918 211.547,313.551 212.153 C 315.558 214.076,316.058 218.528,314.795 223.220 C 314.309 225.022,310.272 229.279,309.376 228.935 C 308.896 228.751,308.802 227.423,308.831 221.256 C 308.851 217.155,308.739 212.856,308.582 211.703 C 308.155 208.555,309.247 207.578,311.346 209.229 M153.085 221.772 C 151.014 223.843,152.307 230.147,155.000 231.103 C 156.958 231.798,169.599 231.456,170.856 230.674 C 172.808 229.460,171.585 229.007,165.796 228.800 C 159.051 228.559,157.844 227.961,155.800 223.846 C 154.493 221.215,154.011 220.846,153.085 221.772 M155.486 224.734 C 157.360 228.757,159.244 229.600,166.362 229.600 C 172.244 229.600,171.302 230.266,164.900 230.634 C 155.525 231.173,154.436 230.972,153.360 228.514 C 152.583 226.737,152.529 224.821,153.210 223.177 C 153.889 221.537,154.046 221.644,155.486 224.734 M97.417 224.896 C 96.054 226.843,97.317 228.884,98.860 227.227 C 99.818 226.199,99.801 225.118,98.817 224.504 C 98.151 224.088,97.943 224.146,97.417 224.896 M98.487 226.473 C 97.876 227.084,97.425 226.633,97.764 225.750 C 97.964 225.229,98.137 225.177,98.493 225.533 C 98.849 225.889,98.847 226.113,98.487 226.473 M375.920 229.280 C 376.641 230.001,376.511 230.282,375.300 230.620 C 372.906 231.288,370.884 230.411,372.634 229.463 C 374.043 228.701,375.272 228.632,375.920 229.280 M307.767 229.443 C 308.115 229.576,308.400 229.824,308.400 229.993 C 308.400 230.498,306.079 230.805,305.105 230.428 L 304.200 230.078 305.200 229.664 C 306.402 229.167,306.930 229.122,307.767 229.443 M298.800 230.000 C 299.239 230.284,298.937 230.389,297.676 230.394 C 296.628 230.398,296.050 230.243,296.200 230.000 C 296.514 229.493,298.015 229.493,298.800 230.000 " stroke="none" fill="#7e7c7e" fill-rule="evenodd"></path><path id="path4" d="M33.600 151.153 C 33.600 151.347,32.610 151.975,31.400 152.548 C 30.190 153.121,29.200 153.738,29.200 153.919 C 29.200 154.101,28.871 154.602,28.469 155.034 C 28.067 155.465,27.403 157.074,26.994 158.609 C 26.584 160.144,26.124 161.490,25.972 161.600 C 25.516 161.928,24.400 165.544,24.394 166.714 C 24.380 169.280,23.131 171.957,21.600 172.706 C 17.586 174.669,16.949 175.283,16.178 177.934 C 15.522 180.191,15.546 186.139,16.229 190.100 C 16.474 191.520,16.431 191.600,15.430 191.600 C 10.907 191.600,9.502 203.536,13.594 207.200 C 13.963 207.530,14.923 208.835,15.727 210.100 C 16.532 211.365,17.435 212.400,17.734 212.400 C 18.222 212.400,21.964 216.247,22.815 217.624 C 23.247 218.323,22.657 219.041,21.003 219.825 C 19.690 220.449,19.036 221.392,18.640 223.235 C 18.429 224.215,17.629 224.727,14.600 225.821 C 13.851 226.092,13.864 226.130,14.800 226.415 C 16.745 227.009,18.644 226.829,19.639 225.958 C 20.990 224.775,27.022 225.327,26.065 226.547 C 25.869 226.796,25.592 227.770,25.448 228.710 C 25.139 230.735,26.034 231.500,27.037 230.069 C 27.858 228.896,29.774 228.655,32.741 229.352 C 36.009 230.119,36.099 230.260,33.526 230.592 C 27.515 231.368,25.910 233.070,28.980 235.412 C 32.655 238.215,39.582 236.513,40.218 232.651 C 40.368 231.743,40.637 230.817,40.817 230.593 C 40.996 230.370,40.957 229.317,40.731 228.254 C 40.248 225.993,40.289 225.942,43.322 225.019 C 46.105 224.171,47.620 222.977,48.803 220.697 C 49.287 219.764,49.946 218.850,50.266 218.666 C 50.723 218.405,50.790 217.844,50.575 216.066 C 50.241 213.313,50.365 213.457,48.960 214.190 C 48.322 214.523,47.150 214.796,46.355 214.798 C 44.762 214.800,42.800 216.353,42.800 217.612 C 42.800 218.405,42.035 218.797,40.467 218.806 C 39.880 218.809,39.146 218.973,38.836 219.169 C 38.488 219.390,37.990 219.351,37.536 219.067 C 36.133 218.191,36.629 217.639,39.709 216.647 C 40.099 216.521,40.520 216.099,40.645 215.709 C 41.207 213.957,41.872 213.063,42.876 212.713 C 43.622 212.453,44.108 211.879,44.436 210.868 C 44.699 210.061,45.447 208.652,46.098 207.737 C 47.453 205.834,47.207 202.605,45.604 201.261 C 44.546 200.374,44.525 198.329,45.546 195.600 C 47.033 191.624,47.217 190.130,46.358 189.037 C 45.941 188.507,45.600 187.798,45.600 187.461 C 45.600 187.123,45.440 186.749,45.245 186.628 C 45.050 186.507,44.779 185.816,44.643 185.091 C 44.508 184.366,43.680 182.820,42.805 181.656 C 41.930 180.491,41.011 178.787,40.764 177.869 C 40.291 176.117,39.022 173.417,38.191 172.400 C 37.922 172.070,37.510 170.900,37.275 169.800 C 36.835 167.735,36.684 166.366,35.999 158.200 C 35.740 155.106,35.351 152.938,34.907 152.100 C 34.252 150.864,33.600 150.391,33.600 151.153 M32.972 158.701 C 33.318 159.714,33.600 160.950,33.600 161.448 C 33.600 161.945,33.760 162.451,33.955 162.572 C 34.150 162.693,34.426 163.468,34.568 164.296 C 35.440 169.370,36.618 173.319,37.823 175.200 C 38.316 175.970,38.945 177.320,39.221 178.200 C 40.024 180.756,41.082 183.004,41.740 183.550 C 44.479 185.824,45.327 192.812,43.296 196.369 L 42.285 198.139 39.927 195.569 C 38.629 194.156,36.972 192.100,36.243 191.000 C 35.513 189.900,34.546 188.671,34.092 188.268 C 33.638 187.866,32.860 186.516,32.363 185.268 C 31.865 184.021,30.893 182.100,30.203 181.000 C 29.513 179.900,28.634 177.650,28.249 176.000 C 27.865 174.350,27.303 172.351,27.002 171.559 C 26.410 170.004,26.690 165.722,27.586 162.600 C 27.839 161.720,28.225 160.280,28.445 159.400 C 29.432 155.448,31.742 155.091,32.972 158.701 M27.980 181.147 C 28.542 182.648,29.176 183.665,29.643 183.814 C 30.058 183.945,30.503 184.536,30.632 185.127 C 31.265 188.037,32.055 189.310,33.519 189.774 C 34.003 189.928,34.400 190.359,34.400 190.733 C 34.400 191.106,34.758 192.079,35.195 192.895 C 35.984 194.367,35.984 194.380,35.204 194.798 C 34.117 195.380,32.802 194.510,32.794 193.204 C 32.785 191.747,32.276 191.155,30.765 190.846 C 29.604 190.609,29.359 190.338,28.914 188.798 C 28.628 187.811,27.888 186.575,27.245 186.012 C 24.784 183.855,23.884 178.501,25.474 175.480 L 26.148 174.200 26.610 176.460 C 26.865 177.704,27.481 179.813,27.980 181.147 M22.400 177.017 C 22.400 179.503,24.501 186.155,25.617 187.200 C 25.969 187.530,26.604 188.430,27.028 189.200 C 27.845 190.681,29.776 192.800,30.310 192.800 C 30.485 192.800,30.971 193.385,31.390 194.100 C 31.810 194.815,32.794 196.044,33.577 196.831 C 34.360 197.618,35.630 199.012,36.400 199.929 C 37.170 200.846,37.981 201.597,38.202 201.598 C 38.423 201.599,39.328 202.281,40.211 203.114 C 41.095 203.946,42.251 204.930,42.779 205.301 C 43.631 205.897,43.687 206.092,43.270 207.006 C 43.012 207.573,42.800 208.548,42.800 209.173 C 42.800 209.971,42.473 210.521,41.700 211.024 C 40.419 211.858,39.631 212.793,39.613 213.500 C 39.598 214.084,38.169 215.600,37.632 215.600 C 36.920 215.600,34.796 217.007,34.601 217.608 C 34.379 218.296,32.733 219.200,29.800 220.247 C 28.700 220.639,27.426 221.384,26.968 221.902 C 26.248 222.718,25.834 222.828,23.864 222.722 C 21.217 222.580,20.918 222.076,22.910 221.113 C 24.699 220.248,25.151 218.662,24.188 216.631 C 23.512 215.206,19.425 210.800,18.780 210.800 C 17.489 210.800,12.800 202.151,12.800 199.771 C 12.800 197.688,13.749 194.415,14.217 194.883 C 14.290 194.956,14.916 196.158,15.609 197.554 C 16.315 198.977,17.193 200.178,17.607 200.286 C 18.014 200.392,18.808 201.177,19.372 202.030 C 19.937 202.883,20.894 203.896,21.499 204.281 C 22.105 204.666,22.690 205.100,22.800 205.244 C 24.557 207.555,25.165 208.142,26.282 208.608 C 27.007 208.911,27.600 209.314,27.600 209.504 C 27.600 210.273,30.128 212.432,30.544 212.016 C 30.773 211.787,31.202 211.600,31.497 211.600 C 32.346 211.600,33.869 210.014,33.338 209.682 C 33.090 209.527,32.475 208.590,31.970 207.600 C 31.465 206.610,30.411 205.149,29.626 204.354 C 26.694 201.381,24.781 199.123,24.142 197.881 C 23.779 197.176,22.898 196.098,22.183 195.485 C 21.382 194.797,20.784 193.838,20.624 192.985 C 20.481 192.223,20.221 191.600,20.045 191.600 C 19.870 191.600,19.251 190.726,18.670 189.658 C 16.351 185.396,16.624 178.307,19.128 177.772 C 19.718 177.646,20.560 177.388,21.000 177.199 C 21.966 176.783,22.400 176.726,22.400 177.017 M381.323 184.383 C 378.543 185.570,378.272 192.920,380.920 195.300 C 383.632 197.738,389.074 196.124,389.761 192.679 C 391.022 186.348,386.691 182.090,381.323 184.383 M127.200 188.221 C 126.870 188.291,125.771 188.458,124.759 188.590 C 123.746 188.723,122.534 189.188,122.066 189.624 C 121.598 190.060,120.668 190.526,119.999 190.660 C 119.331 190.794,118.686 191.060,118.568 191.252 C 118.450 191.443,118.017 191.600,117.608 191.600 C 117.198 191.600,116.246 192.320,115.493 193.200 C 114.740 194.080,113.934 194.800,113.703 194.800 C 113.105 194.800,110.800 197.512,110.800 198.217 C 110.800 198.540,110.333 199.209,109.762 199.703 C 106.035 202.924,105.835 220.542,109.494 223.273 C 109.882 223.563,110.877 224.835,111.704 226.100 C 112.531 227.365,113.452 228.400,113.749 228.400 C 114.047 228.400,115.503 229.295,116.986 230.389 C 120.394 232.905,120.193 232.875,132.631 232.726 L 143.063 232.600 144.331 231.331 C 145.029 230.633,145.600 229.898,145.600 229.698 C 145.600 229.498,146.286 228.783,147.124 228.109 C 150.298 225.558,150.423 221.549,147.365 220.387 C 144.652 219.355,142.490 220.379,137.983 224.830 C 134.852 227.923,124.400 228.725,124.400 225.872 C 124.400 225.653,123.616 224.736,122.658 223.836 C 119.718 221.075,118.781 206.139,121.200 200.600 C 121.392 200.160,121.652 199.430,121.777 198.979 C 121.902 198.527,122.768 197.763,123.702 197.281 C 124.636 196.799,125.670 196.246,126.000 196.054 C 127.648 195.091,130.391 194.063,130.564 194.342 C 130.672 194.516,131.534 194.910,132.480 195.216 C 133.426 195.523,134.650 196.004,135.200 196.285 C 135.750 196.565,136.621 196.796,137.136 196.798 C 138.010 196.800,139.557 198.160,139.587 198.953 C 139.643 200.452,146.056 201.642,147.868 200.490 C 149.102 199.705,148.874 198.177,147.225 196.181 C 146.331 195.100,145.600 193.969,145.600 193.669 C 145.600 189.921,134.552 186.650,127.200 188.221 M161.400 188.345 C 159.787 188.770,158.400 189.542,158.400 190.014 C 158.400 190.226,158.103 190.400,157.740 190.400 C 154.377 190.400,151.304 193.934,150.617 198.589 C 150.432 199.845,150.043 200.774,149.562 201.112 C 148.596 201.788,148.594 202.281,149.556 202.586 C 150.129 202.768,150.380 203.374,150.595 205.102 C 151.083 209.008,153.623 212.800,155.750 212.800 C 156.081 212.800,156.464 212.980,156.600 213.200 C 156.736 213.420,157.188 213.600,157.604 213.600 C 158.020 213.600,158.504 213.851,158.680 214.159 C 159.188 215.046,161.655 216.319,163.400 216.594 C 166.403 217.067,166.719 217.196,168.451 218.642 C 170.183 220.090,171.718 222.149,171.344 222.523 C 171.234 222.632,171.020 223.594,170.868 224.659 C 170.105 229.994,158.888 228.115,156.781 222.300 C 155.009 217.408,150.146 219.479,150.511 224.970 C 150.987 232.120,151.605 232.564,161.308 232.732 C 170.372 232.889,171.190 232.768,173.172 230.977 C 174.011 230.220,174.818 229.600,174.965 229.600 C 175.430 229.600,176.650 228.264,177.846 226.446 C 178.481 225.482,179.314 224.222,179.698 223.646 C 181.163 221.449,180.407 214.293,178.555 212.836 C 178.059 212.446,177.270 211.392,176.802 210.493 C 175.800 208.571,174.868 207.893,171.953 206.967 C 170.769 206.591,169.440 205.970,169.000 205.588 C 167.896 204.630,165.786 203.600,164.920 203.598 C 162.436 203.590,161.244 202.798,160.086 200.384 L 158.940 197.997 160.612 196.252 C 162.451 194.333,166.064 193.912,166.586 195.557 C 166.701 195.918,167.606 196.657,168.597 197.199 C 169.589 197.740,170.400 198.316,170.400 198.478 C 170.400 199.084,172.834 201.515,173.655 201.730 C 177.794 202.813,177.988 192.896,173.868 190.816 C 172.951 190.352,171.624 189.608,170.921 189.162 C 169.505 188.264,163.621 187.759,161.400 188.345 M235.600 188.912 C 235.050 189.212,234.240 189.664,233.800 189.916 C 233.360 190.168,231.840 190.655,230.423 190.999 C 225.389 192.218,219.894 197.938,218.730 203.169 C 218.457 204.396,217.908 205.752,217.510 206.183 C 215.550 208.303,216.039 218.775,218.100 218.797 C 218.265 218.799,218.400 219.154,218.400 219.586 C 218.400 221.272,219.741 224.270,221.136 225.704 C 221.941 226.531,223.118 227.746,223.750 228.404 C 224.383 229.062,225.139 229.600,225.431 229.600 C 225.723 229.600,226.574 230.231,227.324 231.003 C 229.143 232.875,231.925 233.221,243.225 232.975 C 257.168 232.672,257.555 232.441,258.580 223.800 C 259.061 219.747,259.473 218.101,260.300 216.940 C 263.443 212.526,260.815 210.932,251.002 211.300 C 245.236 211.515,244.176 211.785,243.245 213.277 C 242.715 214.126,243.974 216.400,244.973 216.400 C 247.254 216.400,248.403 223.229,246.705 226.700 C 246.236 227.659,237.975 228.131,237.419 227.231 C 237.294 227.028,236.685 226.750,236.066 226.614 C 235.261 226.438,234.551 225.743,233.570 224.172 C 232.817 222.964,231.570 221.037,230.800 219.888 L 229.400 217.800 229.411 211.800 L 229.423 205.800 231.065 203.200 C 231.968 201.770,232.928 199.969,233.199 199.198 C 233.809 197.457,241.474 194.208,242.681 195.178 C 242.856 195.319,244.651 195.965,246.670 196.614 C 249.959 197.671,250.374 197.913,250.673 198.955 C 250.856 199.594,251.669 200.653,252.479 201.309 L 253.952 202.501 255.276 201.731 C 259.667 199.174,257.796 191.400,252.603 190.621 C 251.564 190.466,250.058 189.953,249.257 189.482 C 247.400 188.390,237.324 187.970,235.600 188.912 M183.900 189.345 L 181.600 189.691 181.600 191.845 C 181.600 193.353,181.810 194.219,182.300 194.730 C 184.044 196.549,184.804 197.875,184.854 199.187 C 185.037 203.964,184.655 225.510,184.378 226.033 C 184.194 226.381,183.235 227.095,182.247 227.619 C 179.702 228.969,179.331 229.992,180.855 231.454 L 182.052 232.600 189.457 232.739 C 197.995 232.899,199.135 232.756,200.539 231.352 C 201.739 230.152,201.311 228.991,199.297 227.983 C 196.634 226.651,196.800 227.712,196.800 212.027 C 196.800 196.506,196.740 196.940,199.135 195.032 C 200.342 194.071,200.193 190.168,198.921 189.446 C 198.036 188.943,187.068 188.870,183.900 189.345 M386.400 190.262 C 386.400 191.685,386.379 191.705,385.623 191.020 C 384.983 190.441,384.929 190.183,385.319 189.558 C 386.037 188.408,386.400 188.643,386.400 190.262 M65.280 189.851 C 64.615 190.144,62.800 193.003,62.800 193.758 C 62.800 194.073,63.700 194.885,64.800 195.562 C 65.900 196.239,66.818 196.839,66.840 196.896 C 66.862 196.953,67.011 203.300,67.169 211.000 C 67.461 225.148,67.811 228.000,69.253 228.000 C 69.666 228.000,71.600 229.813,71.600 230.200 C 71.600 230.811,73.588 232.333,74.682 232.561 C 79.285 233.519,86.381 233.814,90.154 233.205 C 91.499 232.988,93.440 232.709,94.466 232.586 C 96.511 232.340,100.054 229.450,101.315 227.000 C 101.654 226.340,102.262 225.440,102.666 225.000 C 104.565 222.930,104.605 222.594,104.508 209.700 L 104.416 197.526 105.408 195.749 C 107.883 191.315,105.843 189.718,97.600 189.638 C 94.375 189.606,94.067 189.800,93.757 192.063 C 93.497 193.958,93.558 194.091,95.902 196.712 C 96.398 197.267,97.000 198.459,97.240 199.361 C 97.479 200.262,97.848 201.329,98.060 201.730 C 98.271 202.132,98.552 206.188,98.683 210.743 C 98.937 219.595,98.730 220.870,96.708 222.892 C 96.313 223.287,95.701 224.330,95.350 225.209 C 94.547 227.216,93.929 227.400,88.000 227.400 C 82.924 227.400,80.800 226.848,80.800 225.530 C 80.800 225.104,80.437 223.959,79.993 222.984 C 78.646 220.028,78.042 215.444,77.824 206.523 L 77.616 198.045 78.708 197.225 C 82.260 194.557,82.446 194.334,82.321 192.881 C 82.145 190.844,80.551 189.761,77.971 189.926 C 74.412 190.154,69.433 190.128,67.600 189.872 C 66.610 189.734,65.566 189.724,65.280 189.851 M134.580 190.327 C 134.371 190.507,132.940 190.535,131.400 190.390 L 128.600 190.126 131.780 190.063 C 133.529 190.028,134.789 190.147,134.580 190.327 M166.648 190.323 C 166.456 190.632,163.600 190.477,163.600 190.156 C 163.600 190.070,164.331 190.000,165.224 190.000 C 166.117 190.000,166.758 190.145,166.648 190.323 M140.069 191.267 C 142.956 191.899,144.265 193.162,144.606 195.645 C 144.754 196.720,145.038 197.600,145.238 197.600 C 146.171 197.600,145.432 198.345,143.902 198.946 L 142.204 199.613 140.592 197.858 C 139.706 196.892,138.130 195.715,137.090 195.241 C 135.372 194.458,135.200 194.255,135.200 193.010 C 135.200 190.849,136.324 190.446,140.069 191.267 M171.800 192.000 C 172.680 192.425,173.596 192.779,173.836 192.786 C 175.231 192.830,175.980 197.778,174.806 199.200 L 173.982 200.200 172.812 198.800 C 171.301 196.992,171.299 196.991,169.300 195.588 C 165.763 193.106,167.859 190.096,171.800 192.000 M19.097 194.068 C 19.771 196.123,20.131 196.642,21.248 197.169 C 21.991 197.520,22.646 198.159,22.715 198.601 C 22.961 200.158,23.750 201.202,25.030 201.665 C 25.975 202.007,26.390 202.448,26.558 203.290 C 26.830 204.650,27.479 205.381,28.784 205.795 C 30.165 206.233,28.857 206.887,26.925 206.724 C 25.553 206.608,25.436 206.489,25.032 204.800 C 24.641 203.171,24.471 202.981,23.241 202.800 C 21.853 202.596,21.492 202.225,20.812 200.306 C 20.582 199.656,19.917 199.005,19.174 198.702 C 16.789 197.729,15.372 191.600,17.532 191.600 C 18.104 191.600,18.485 192.199,19.097 194.068 M75.851 192.240 C 78.533 193.348,78.885 193.868,77.767 195.073 C 76.366 196.585,76.262 197.851,76.499 210.447 C 76.696 220.913,76.782 222.014,77.458 222.744 C 77.866 223.185,78.558 224.233,78.995 225.073 C 80.770 228.485,83.890 229.475,91.299 228.979 C 95.096 228.725,95.501 228.764,95.751 229.416 C 96.235 230.677,95.310 230.964,89.494 231.353 C 76.934 232.195,75.501 231.939,71.985 228.221 C 68.449 224.483,68.646 225.454,68.410 210.600 C 68.212 198.184,68.150 197.299,67.352 195.705 C 65.686 192.371,70.962 190.220,75.851 192.240 M124.618 192.582 C 125.967 193.931,125.919 194.041,123.215 195.791 C 120.737 197.394,119.592 199.704,118.552 205.200 C 118.407 205.970,118.137 206.895,117.953 207.256 C 117.484 208.177,117.405 215.870,117.858 216.489 C 118.064 216.770,118.564 218.080,118.969 219.400 C 120.544 224.534,123.345 228.055,126.230 228.532 C 131.801 229.452,136.974 228.475,139.111 226.099 C 140.824 224.194,142.360 223.206,143.611 223.203 C 144.167 223.201,144.937 222.832,145.322 222.383 C 145.707 221.934,146.180 221.664,146.373 221.783 C 146.803 222.049,146.445 223.600,145.953 223.600 C 145.759 223.600,145.600 224.144,145.600 224.808 C 145.600 225.472,145.182 226.687,144.671 227.508 C 144.160 228.329,143.628 229.309,143.488 229.687 C 142.908 231.262,140.811 231.587,131.313 231.575 C 121.806 231.563,121.089 231.445,119.067 229.562 C 118.623 229.148,117.886 228.692,117.429 228.550 C 115.315 227.889,113.290 225.936,110.995 222.346 L 108.600 218.600 108.600 211.761 C 108.600 204.377,108.584 204.449,111.100 200.671 C 111.815 199.598,112.400 198.477,112.400 198.180 C 112.400 197.883,113.075 197.140,113.900 196.528 C 114.725 195.916,115.945 194.857,116.611 194.173 C 118.921 191.805,123.025 190.989,124.618 192.582 M195.780 192.224 C 197.170 193.134,197.292 193.850,196.377 195.725 C 195.598 197.322,195.560 198.093,195.574 212.200 L 195.588 227.000 196.565 227.800 C 197.102 228.240,198.019 228.934,198.601 229.341 L 199.660 230.083 198.730 230.741 C 196.824 232.091,183.159 231.692,181.711 230.245 C 181.619 230.152,182.631 229.497,183.961 228.789 C 187.181 227.072,186.979 228.714,187.315 201.600 C 187.354 198.468,186.910 196.592,185.824 195.301 C 183.540 192.587,192.233 189.900,195.780 192.224 M235.549 192.042 C 236.632 192.420,237.944 193.834,237.532 194.180 C 237.460 194.241,236.500 194.776,235.400 195.370 C 233.395 196.451,231.606 198.193,231.602 199.067 C 231.601 199.323,231.465 199.593,231.300 199.667 C 226.652 201.732,226.896 219.043,231.644 224.139 C 232.055 224.580,232.507 225.306,232.648 225.752 C 233.322 227.876,236.164 228.884,241.600 228.926 C 247.821 228.975,248.279 228.569,248.667 222.661 C 248.997 217.640,248.802 217.040,246.356 215.535 L 244.332 214.290 245.133 213.489 C 245.861 212.761,246.496 212.685,252.156 212.648 C 260.224 212.595,260.974 213.127,258.001 216.801 C 257.353 217.602,257.147 218.602,256.969 221.801 C 256.628 227.944,255.634 230.217,252.946 230.999 C 250.854 231.607,245.630 231.737,243.400 231.236 C 242.740 231.088,241.393 231.111,240.407 231.289 C 234.957 232.267,230.585 231.638,228.086 229.516 C 227.363 228.902,226.535 228.400,226.244 228.400 C 225.954 228.400,224.590 227.132,223.213 225.583 C 219.468 221.369,217.240 212.540,218.775 208.000 C 219.184 206.790,219.736 204.990,220.001 204.000 C 220.266 203.010,220.625 201.840,220.797 201.400 C 221.663 199.194,228.062 192.960,229.800 192.629 C 230.240 192.545,231.320 192.302,232.200 192.089 C 233.080 191.876,233.908 191.678,234.040 191.651 C 234.172 191.623,234.851 191.799,235.549 192.042 M252.563 192.193 C 255.248 192.834,255.414 193.013,256.017 195.899 C 256.848 199.870,254.518 201.662,252.375 198.700 C 251.549 197.559,250.249 196.527,248.424 195.561 C 243.860 193.147,246.741 190.802,252.563 192.193 M103.050 193.247 L 103.951 194.094 103.176 195.541 C 102.749 196.337,102.375 197.711,102.346 198.594 C 102.308 199.700,102.234 199.889,102.107 199.200 C 101.895 198.040,101.076 197.206,99.434 196.476 C 98.793 196.190,97.858 195.562,97.357 195.080 L 96.446 194.203 97.293 193.301 C 98.465 192.053,101.746 192.022,103.050 193.247 M159.748 193.247 C 160.304 194.041,160.231 194.198,158.571 195.766 C 156.466 197.754,156.451 197.892,158.023 200.641 C 159.394 203.037,160.890 204.280,162.866 204.668 C 163.600 204.812,164.830 205.310,165.600 205.774 C 167.213 206.746,168.427 207.314,170.400 208.020 C 173.728 209.209,174.396 209.708,175.918 212.141 C 178.874 216.864,179.479 220.892,177.554 223.019 C 177.146 223.470,176.700 224.400,176.563 225.086 C 175.664 229.582,172.600 229.142,172.600 224.516 C 172.600 220.156,170.805 217.108,167.892 216.520 C 167.282 216.397,166.686 216.140,166.568 215.948 C 166.450 215.757,165.958 215.594,165.476 215.587 C 164.696 215.576,162.496 214.629,160.200 213.315 C 159.760 213.063,158.549 212.470,157.508 211.997 C 152.087 209.531,149.891 202.044,152.853 196.127 C 154.413 193.011,158.413 191.341,159.748 193.247 M38.926 197.343 C 39.481 198.190,39.481 198.347,38.929 198.900 C 37.982 199.847,36.563 198.369,37.294 197.198 C 37.935 196.172,38.173 196.193,38.926 197.343 M102.694 215.292 C 102.564 221.300,102.368 222.901,101.828 222.361 C 100.982 221.515,100.992 205.621,101.839 203.155 C 102.401 201.520,102.853 207.935,102.694 215.292 M356.600 203.381 C 352.579 204.578,352.000 205.134,352.000 207.802 C 352.000 210.377,352.637 212.294,353.594 212.598 C 354.560 212.905,354.895 218.876,354.725 232.781 L 354.600 242.962 352.698 243.973 C 347.392 246.794,351.081 249.013,360.612 248.735 L 366.008 248.577 367.233 247.352 L 368.458 246.127 366.629 244.384 L 364.800 242.641 364.800 238.183 C 364.800 232.271,364.854 232.217,370.264 232.675 C 374.869 233.065,377.610 232.669,378.885 231.430 C 384.737 225.743,384.996 225.075,384.739 216.333 C 384.577 210.820,384.762 211.244,380.800 207.303 C 377.258 203.780,372.429 202.600,367.541 204.065 C 366.447 204.393,365.726 204.407,365.095 204.115 C 361.961 202.661,359.679 202.464,356.600 203.381 M272.200 203.560 C 270.154 203.923,268.906 204.612,267.699 206.048 C 267.168 206.678,266.239 207.486,265.634 207.843 C 263.322 209.209,263.182 212.079,265.400 212.636 C 267.578 213.182,268.212 225.400,266.159 227.258 C 265.587 227.776,264.777 228.515,264.359 228.900 C 263.339 229.840,263.403 230.475,264.631 231.630 C 266.647 233.526,277.705 233.249,279.948 231.246 L 281.189 230.139 280.379 229.269 C 279.933 228.791,279.420 228.400,279.239 228.400 C 277.393 228.400,276.800 226.407,276.813 220.245 C 276.828 212.757,276.821 212.771,280.728 212.904 C 284.773 213.041,285.415 212.343,285.263 207.972 C 285.151 204.742,283.679 203.581,279.760 203.635 C 278.022 203.659,275.970 203.588,275.200 203.478 C 274.430 203.367,273.080 203.404,272.200 203.560 M295.542 204.222 C 294.741 204.513,293.633 205.167,293.080 205.676 C 291.444 207.182,290.913 207.559,289.443 208.260 C 285.673 210.058,285.514 228.400,289.269 228.400 C 289.476 228.400,290.548 229.289,291.651 230.375 C 294.071 232.756,294.784 232.891,304.090 232.716 L 310.381 232.597 311.290 231.411 C 312.208 230.215,313.423 228.970,315.322 227.279 C 316.846 225.922,317.642 217.105,316.673 212.326 C 316.362 210.795,313.279 207.398,311.485 206.612 C 310.998 206.398,310.326 205.923,309.991 205.555 C 308.255 203.651,299.373 202.832,295.542 204.222 M319.472 204.440 C 316.918 205.040,316.134 206.288,317.645 207.347 C 318.962 208.269,319.475 211.470,319.514 219.006 C 319.551 226.236,319.761 227.332,321.514 229.420 C 322.111 230.131,322.895 231.104,323.255 231.583 C 324.724 233.532,334.436 233.568,337.152 231.634 C 338.216 230.876,338.255 230.876,338.712 231.607 C 339.901 233.511,346.114 233.324,349.660 231.277 L 351.622 230.144 350.770 229.373 C 348.871 227.654,348.740 226.877,348.660 216.809 C 348.569 205.479,348.450 205.153,344.118 204.350 C 337.092 203.048,333.680 205.360,337.345 208.942 L 338.600 210.168 338.600 216.879 L 338.600 223.590 337.500 224.611 C 336.895 225.173,336.400 225.801,336.400 226.007 C 336.400 227.764,330.518 227.422,329.766 225.622 C 329.623 225.280,329.380 221.034,329.227 216.187 C 328.842 204.024,327.599 202.528,319.472 204.440 M362.661 205.478 C 364.503 206.144,366.773 210.400,365.286 210.400 C 365.113 210.400,364.378 211.165,363.653 212.100 L 362.334 213.800 362.613 219.800 C 362.902 226.004,363.183 227.111,364.862 228.672 C 366.095 229.819,370.024 230.041,371.800 229.065 C 372.460 228.702,373.270 228.398,373.600 228.390 C 375.526 228.341,376.429 225.881,376.488 220.526 C 376.545 215.293,375.994 213.861,373.165 211.898 C 371.974 211.072,370.573 210.082,370.050 209.698 C 369.528 209.314,368.970 208.910,368.810 208.800 C 368.420 208.532,367.600 206.949,367.600 206.465 C 367.600 205.009,373.385 204.826,376.177 206.193 C 384.801 210.417,386.566 220.466,379.960 227.733 C 376.624 231.402,374.411 232.232,371.361 230.958 C 369.138 230.029,365.818 230.365,364.671 231.635 C 362.036 234.554,362.200 242.497,364.953 245.246 L 366.000 246.291 364.143 247.001 C 362.645 247.573,361.541 247.668,358.443 247.491 C 352.565 247.156,350.972 246.039,354.470 244.704 C 356.548 243.911,357.043 215.993,355.059 211.513 C 352.608 205.981,356.190 203.137,362.661 205.478 M283.600 207.211 C 283.600 207.590,283.709 208.444,283.842 209.108 C 284.250 211.151,283.049 211.957,279.943 211.726 C 277.603 211.552,277.310 211.622,276.274 212.608 L 275.148 213.680 275.274 220.487 L 275.400 227.293 277.115 228.814 L 278.829 230.335 276.653 230.967 C 273.348 231.928,269.063 231.765,265.600 230.545 C 265.141 230.383,265.291 230.084,266.244 229.267 C 269.418 226.544,269.486 213.899,266.341 211.153 C 265.380 210.314,265.407 209.907,266.469 209.188 C 266.947 208.865,267.982 208.045,268.769 207.367 C 270.741 205.667,271.244 205.538,275.800 205.567 C 278.000 205.581,280.340 205.444,281.000 205.262 C 282.318 204.899,283.600 205.860,283.600 207.211 M307.148 205.768 C 307.397 205.921,307.600 206.397,307.600 206.824 C 307.600 207.446,307.881 207.600,309.017 207.600 C 310.811 207.600,311.382 208.037,313.882 211.325 C 319.782 219.084,312.284 234.241,304.238 230.818 L 302.600 230.121 304.902 229.030 C 308.149 227.492,308.206 227.325,308.165 219.400 C 308.100 206.585,308.389 207.063,300.700 207.055 C 296.460 207.050,295.328 206.640,296.989 205.710 C 297.692 205.317,306.499 205.367,307.148 205.768 M324.594 206.261 C 327.540 206.665,327.869 207.764,328.097 217.977 L 328.279 226.154 329.577 227.237 C 330.296 227.837,331.616 228.434,332.537 228.575 C 333.452 228.715,334.619 229.149,335.131 229.540 L 336.062 230.250 334.388 231.005 C 330.829 232.610,324.472 231.819,323.719 229.677 C 323.589 229.305,323.087 228.460,322.605 227.800 C 320.491 224.905,320.103 206.000,322.158 206.000 C 322.450 206.000,323.546 206.118,324.594 206.261 M343.778 206.565 C 346.820 207.836,346.799 207.760,346.804 217.700 C 346.807 224.140,346.962 227.106,347.364 228.431 L 347.920 230.262 345.860 230.958 C 342.000 232.263,340.403 231.860,339.338 229.313 C 338.737 227.874,338.626 225.560,339.130 224.980 C 340.148 223.810,340.489 221.112,340.245 216.146 C 339.842 207.959,339.654 206.799,338.660 206.397 C 338.021 206.140,338.396 206.044,340.113 206.025 C 341.385 206.011,343.034 206.254,343.778 206.565 M30.802 209.300 C 31.108 210.245,31.049 210.400,30.379 210.400 C 29.742 210.400,29.600 210.120,29.600 208.867 C 29.600 207.234,30.117 206.232,30.323 207.464 C 30.391 207.869,30.607 208.695,30.802 209.300 M296.200 208.399 C 296.349 209.078,296.233 210.248,295.931 211.099 C 295.199 213.169,295.210 223.946,295.947 226.484 C 296.463 228.256,296.615 228.406,298.547 229.033 C 301.310 229.928,301.563 230.262,299.839 230.738 C 297.765 231.311,294.063 230.866,293.593 229.987 C 293.388 229.603,292.322 228.644,291.224 227.856 C 286.878 224.733,286.395 213.279,290.462 209.797 C 293.712 207.014,295.785 206.509,296.200 208.399 M303.940 209.085 C 304.743 209.461,305.611 209.974,305.868 210.224 C 307.659 211.964,307.539 226.800,305.734 226.800 C 305.419 226.800,304.428 227.154,303.531 227.588 C 302.354 228.157,301.700 228.268,301.177 227.988 C 300.778 227.774,299.907 227.600,299.240 227.600 C 297.466 227.600,297.120 226.572,296.897 220.626 C 296.568 211.890,297.221 209.301,299.880 208.786 C 302.199 208.337,302.373 208.350,303.940 209.085 M372.223 213.245 C 374.807 214.316,375.496 216.488,375.058 222.182 C 374.749 226.205,374.552 226.800,373.531 226.800 C 373.100 226.800,372.354 227.013,371.874 227.274 C 370.605 227.962,366.066 227.723,365.270 226.927 C 364.055 225.712,364.042 213.969,365.254 212.822 C 366.410 211.728,368.932 211.881,372.223 213.245 M46.672 219.215 C 46.103 220.723,45.200 220.763,45.200 219.280 C 45.200 217.899,45.935 217.048,46.630 217.625 C 47.002 217.934,47.012 218.314,46.672 219.215 M44.723 221.459 C 44.951 223.065,41.593 224.127,39.419 223.136 C 37.954 222.468,38.158 221.860,40.100 221.103 C 42.474 220.177,44.563 220.338,44.723 221.459 M34.537 222.423 C 34.012 222.948,29.800 222.749,29.800 222.200 C 29.800 221.713,34.046 221.264,34.580 221.694 C 34.817 221.885,34.801 222.159,34.537 222.423 M155.800 223.846 C 157.844 227.961,159.051 228.559,165.796 228.800 C 171.585 229.007,172.808 229.460,170.856 230.674 C 169.599 231.456,156.958 231.798,155.000 231.103 C 152.307 230.147,151.014 223.843,153.085 221.772 C 154.011 220.846,154.493 221.215,155.800 223.846 M99.600 225.713 C 99.600 226.769,98.246 228.069,97.460 227.768 C 96.630 227.449,96.609 226.050,97.417 224.896 C 98.138 223.868,99.600 224.415,99.600 225.713 M35.134 225.951 C 35.919 226.448,34.611 226.698,32.400 226.473 C 31.005 226.330,30.780 226.218,31.400 225.973 C 32.478 225.546,34.477 225.534,35.134 225.951 M35.381 233.264 C 37.468 234.215,35.030 235.208,32.374 234.490 L 31.000 234.118 32.400 233.492 C 34.158 232.705,34.155 232.705,35.381 233.264 " stroke="none" fill="#8c8c8c" fill-rule="evenodd"></path></g></svg>